<?xml version="1.0" encoding="us-ascii" standalone="no"?><svg xmlns="http://www.w3.org/2000/svg" xmlns:xlink="http://www.w3.org/1999/xlink" contentStyleType="text/css" height="1348px" preserveAspectRatio="none" style="width:1435px;height:1348px;background:#FFFFFF;" version="1.1" viewBox="0 0 1435 1348" width="1435px" zoomAndPan="magnify"><defs/><g><!--class AttackType--><g id="elem_AttackType"><rect codeLine="6" fill="#F1F1F1" height="96.8906" id="AttackType" rx="2.5" ry="2.5" style="stroke:#181818;stroke-width:0.5;" width="109" x="76.5" y="56"/><ellipse cx="91.5" cy="72" fill="#EB937F" rx="11" ry="11" style="stroke:#181818;stroke-width:1.0;"/><path d="M95.6094,78 L87.8906,78 L87.8906,65.6094 L95.6094,65.6094 L95.6094,67.7656 L90.3438,67.7656 L90.3438,70.4375 L95.1094,70.4375 L95.1094,72.5938 L90.3438,72.5938 L90.3438,75.8438 L95.6094,75.8438 L95.6094,78 Z " fill="#000000"/><text fill="#000000" font-family="sans-serif" font-size="14" lengthAdjust="spacing" textLength="77" x="105.5" y="76.8467">AttackType</text><line style="stroke:#181818;stroke-width:0.5;" x1="77.5" x2="184.5" y1="88" y2="88"/><text fill="#000000" font-family="sans-serif" font-size="14" lengthAdjust="spacing" textLength="40" x="82.5" y="104.9951">LIGHT</text><text fill="#000000" font-family="sans-serif" font-size="14" lengthAdjust="spacing" textLength="46" x="82.5" y="121.292">HEAVY</text><text fill="#000000" font-family="sans-serif" font-size="14" lengthAdjust="spacing" textLength="45" x="82.5" y="137.5889">MAGIC</text><line style="stroke:#181818;stroke-width:0.5;" x1="77.5" x2="184.5" y1="144.8906" y2="144.8906"/></g><!--class ItemType--><g id="elem_ItemType"><rect codeLine="12" fill="#F1F1F1" height="80.5938" id="ItemType" rx="2.5" ry="2.5" style="stroke:#181818;stroke-width:0.5;" width="130" x="221" y="64"/><ellipse cx="251.3" cy="80" fill="#EB937F" rx="11" ry="11" style="stroke:#181818;stroke-width:1.0;"/><path d="M255.4094,86 L247.6906,86 L247.6906,73.6094 L255.4094,73.6094 L255.4094,75.7656 L250.1438,75.7656 L250.1438,78.4375 L254.9094,78.4375 L254.9094,80.5938 L250.1438,80.5938 L250.1438,83.8438 L255.4094,83.8438 L255.4094,86 Z " fill="#000000"/><text fill="#000000" font-family="sans-serif" font-size="14" lengthAdjust="spacing" textLength="64" x="268.7" y="84.8467">ItemType</text><line style="stroke:#181818;stroke-width:0.5;" x1="222" x2="350" y1="96" y2="96"/><text fill="#000000" font-family="sans-serif" font-size="14" lengthAdjust="spacing" textLength="84" x="227" y="112.9951">BONUS_LIFE</text><text fill="#000000" font-family="sans-serif" font-size="14" lengthAdjust="spacing" textLength="118" x="227" y="129.292">BONUS_DAMAGE</text><line style="stroke:#181818;stroke-width:0.5;" x1="222" x2="350" y1="136.5938" y2="136.5938"/></g><!--class Entity--><g id="elem_Entity"><rect codeLine="20" fill="#F1F1F1" height="145.7813" id="Entity" rx="2.5" ry="2.5" style="stroke:#181818;stroke-width:0.5;" width="224" x="428" y="31.5"/><ellipse cx="516.75" cy="47.5" fill="#ADD1B2" rx="11" ry="11" style="stroke:#181818;stroke-width:1.0;"/><path d="M519.7188,53.1406 Q519.1406,53.4375 518.5,53.5781 Q517.8594,53.7344 517.1563,53.7344 Q514.6563,53.7344 513.3281,52.0938 Q512.0156,50.4375 512.0156,47.3125 Q512.0156,44.1875 513.3281,42.5313 Q514.6563,40.875 517.1563,40.875 Q517.8594,40.875 518.5,41.0313 Q519.1563,41.1875 519.7188,41.4844 L519.7188,44.2031 Q519.0938,43.625 518.5,43.3594 Q517.9063,43.0781 517.2813,43.0781 Q515.9375,43.0781 515.25,44.1563 Q514.5625,45.2188 514.5625,47.3125 Q514.5625,49.4063 515.25,50.4844 Q515.9375,51.5469 517.2813,51.5469 Q517.9063,51.5469 518.5,51.2813 Q519.0938,51 519.7188,50.4219 L519.7188,53.1406 Z " fill="#000000"/><text fill="#000000" font-family="sans-serif" font-size="14" lengthAdjust="spacing" textLength="38" x="537.25" y="52.3467">Entity</text><line style="stroke:#181818;stroke-width:0.5;" x1="429" x2="651" y1="63.5" y2="63.5"/><text fill="#000000" font-family="sans-serif" font-size="14" lengthAdjust="spacing" textLength="96" x="434" y="80.4951">-name : string</text><text fill="#000000" font-family="sans-serif" font-size="14" lengthAdjust="spacing" textLength="54" x="434" y="96.792">-life : int</text><line style="stroke:#181818;stroke-width:0.5;" x1="429" x2="651" y1="104.0938" y2="104.0938"/><text fill="#000000" font-family="sans-serif" font-size="14" lengthAdjust="spacing" textLength="208" x="434" y="121.0889">+Entity(name : string, life : int)</text><text fill="#000000" font-family="sans-serif" font-size="14" lengthAdjust="spacing" textLength="107" x="434" y="137.3857">+isAlive() : bool</text><text fill="#000000" font-family="sans-serif" font-size="14" lengthAdjust="spacing" textLength="98" x="434" y="153.6826">+getLife() : int</text><text fill="#000000" font-family="sans-serif" font-size="14" lengthAdjust="spacing" textLength="212" x="434" y="169.9795">+takeDamage(dmg : int) : void</text></g><!--class Attack--><g id="elem_Attack"><rect codeLine="32" fill="#F1F1F1" height="194.6719" id="Attack" rx="2.5" ry="2.5" style="stroke:#181818;stroke-width:0.5;" width="498" x="7" y="859"/><ellipse cx="230.25" cy="875" fill="#ADD1B2" rx="11" ry="11" style="stroke:#181818;stroke-width:1.0;"/><path d="M233.2188,880.6406 Q232.6406,880.9375 232,881.0781 Q231.3594,881.2344 230.6563,881.2344 Q228.1563,881.2344 226.8281,879.5938 Q225.5156,877.9375 225.5156,874.8125 Q225.5156,871.6875 226.8281,870.0313 Q228.1563,868.375 230.6563,868.375 Q231.3594,868.375 232,868.5313 Q232.6563,868.6875 233.2188,868.9844 L233.2188,871.7031 Q232.5938,871.125 232,870.8594 Q231.4063,870.5781 230.7813,870.5781 Q229.4375,870.5781 228.75,871.6563 Q228.0625,872.7188 228.0625,874.8125 Q228.0625,876.9063 228.75,877.9844 Q229.4375,879.0469 230.7813,879.0469 Q231.4063,879.0469 232,878.7813 Q232.5938,878.5 233.2188,877.9219 L233.2188,880.6406 Z " fill="#000000"/><text fill="#000000" font-family="sans-serif" font-size="14" lengthAdjust="spacing" textLength="43" x="250.75" y="879.8467">Attack</text><line style="stroke:#181818;stroke-width:0.5;" x1="8" x2="504" y1="891" y2="891"/><text fill="#000000" font-family="sans-serif" font-size="14" lengthAdjust="spacing" textLength="96" x="13" y="907.9951">-name : string</text><text fill="#000000" font-family="sans-serif" font-size="14" lengthAdjust="spacing" textLength="91" x="13" y="924.292">-damage : int</text><text fill="#000000" font-family="sans-serif" font-size="14" lengthAdjust="spacing" textLength="105" x="13" y="940.5889">-manaCost : int</text><text fill="#000000" font-family="sans-serif" font-size="14" lengthAdjust="spacing" textLength="125" x="13" y="956.8857">-type : AttackType</text><line style="stroke:#181818;stroke-width:0.5;" x1="8" x2="504" y1="964.1875" y2="964.1875"/><text fill="#000000" font-family="sans-serif" font-size="14" lengthAdjust="spacing" textLength="486" x="13" y="981.1826">+Attack(name : string, damage : int, manaCost : int, type : AttackType)</text><text fill="#000000" font-family="sans-serif" font-size="14" lengthAdjust="spacing" textLength="137" x="13" y="997.4795">+getName() : string</text><text fill="#000000" font-family="sans-serif" font-size="14" lengthAdjust="spacing" textLength="133" x="13" y="1013.7764">+getDamage() : int</text><text fill="#000000" font-family="sans-serif" font-size="14" lengthAdjust="spacing" textLength="144" x="13" y="1030.0732">+getManaCost() : int</text><text fill="#000000" font-family="sans-serif" font-size="14" lengthAdjust="spacing" textLength="169" x="13" y="1046.3701">+getType() : AttackType</text></g><!--class Enemy--><g id="elem_Enemy"><rect codeLine="47" fill="#F1F1F1" height="194.6719" id="Enemy" rx="2.5" ry="2.5" style="stroke:#181818;stroke-width:0.5;" width="190" x="289" y="433"/><ellipse cx="356.25" cy="449" fill="#ADD1B2" rx="11" ry="11" style="stroke:#181818;stroke-width:1.0;"/><path d="M359.2188,454.6406 Q358.6406,454.9375 358,455.0781 Q357.3594,455.2344 356.6563,455.2344 Q354.1563,455.2344 352.8281,453.5938 Q351.5156,451.9375 351.5156,448.8125 Q351.5156,445.6875 352.8281,444.0313 Q354.1563,442.375 356.6563,442.375 Q357.3594,442.375 358,442.5313 Q358.6563,442.6875 359.2188,442.9844 L359.2188,445.7031 Q358.5938,445.125 358,444.8594 Q357.4063,444.5781 356.7813,444.5781 Q355.4375,444.5781 354.75,445.6563 Q354.0625,446.7188 354.0625,448.8125 Q354.0625,450.9063 354.75,451.9844 Q355.4375,453.0469 356.7813,453.0469 Q357.4063,453.0469 358,452.7813 Q358.5938,452.5 359.2188,451.9219 L359.2188,454.6406 Z " fill="#000000"/><text fill="#000000" font-family="sans-serif" font-size="14" lengthAdjust="spacing" textLength="47" x="376.75" y="453.8467">Enemy</text><line style="stroke:#181818;stroke-width:0.5;" x1="290" x2="478" y1="465" y2="465"/><text fill="#000000" font-family="sans-serif" font-size="14" lengthAdjust="spacing" textLength="87" x="295" y="481.9951">-race : string</text><text fill="#000000" font-family="sans-serif" font-size="14" lengthAdjust="spacing" textLength="94" x="295" y="498.292">-emoji : string</text><text fill="#000000" font-family="sans-serif" font-size="14" lengthAdjust="spacing" textLength="114" x="295" y="514.5889">-rewardGold : int</text><text fill="#000000" font-family="sans-serif" font-size="14" lengthAdjust="spacing" textLength="178" x="295" y="530.8857">-attacks : vector&lt;Attack&gt;</text><line style="stroke:#181818;stroke-width:0.5;" x1="290" x2="478" y1="538.1875" y2="538.1875"/><text fill="#000000" font-family="sans-serif" font-size="14" lengthAdjust="spacing" textLength="151" x="295" y="555.1826">+Enemy(race : string)</text><text fill="#000000" font-family="sans-serif" font-size="14" lengthAdjust="spacing" textLength="132" x="295" y="571.4795">+getRace() : string</text><text fill="#000000" font-family="sans-serif" font-size="14" lengthAdjust="spacing" textLength="134" x="295" y="587.7764">+getEmoji() : string</text><text fill="#000000" font-family="sans-serif" font-size="14" lengthAdjust="spacing" textLength="127" x="295" y="604.0732">+getReward() : int</text><text fill="#000000" font-family="sans-serif" font-size="14" lengthAdjust="spacing" textLength="174" x="295" y="620.3701">+randomAttack() : Attack</text></g><!--class Item--><g id="elem_Item"><rect codeLine="65" fill="#F1F1F1" height="227.2656" id="Item" rx="2.5" ry="2.5" style="stroke:#181818;stroke-width:0.5;" width="416" x="956" y="1114"/><ellipse cx="1144.75" cy="1130" fill="#ADD1B2" rx="11" ry="11" style="stroke:#181818;stroke-width:1.0;"/><path d="M1147.7188,1135.6406 Q1147.1406,1135.9375 1146.5,1136.0781 Q1145.8594,1136.2344 1145.1563,1136.2344 Q1142.6563,1136.2344 1141.3281,1134.5938 Q1140.0156,1132.9375 1140.0156,1129.8125 Q1140.0156,1126.6875 1141.3281,1125.0313 Q1142.6563,1123.375 1145.1563,1123.375 Q1145.8594,1123.375 1146.5,1123.5313 Q1147.1563,1123.6875 1147.7188,1123.9844 L1147.7188,1126.7031 Q1147.0938,1126.125 1146.5,1125.8594 Q1145.9063,1125.5781 1145.2813,1125.5781 Q1143.9375,1125.5781 1143.25,1126.6563 Q1142.5625,1127.7188 1142.5625,1129.8125 Q1142.5625,1131.9063 1143.25,1132.9844 Q1143.9375,1134.0469 1145.2813,1134.0469 Q1145.9063,1134.0469 1146.5,1133.7813 Q1147.0938,1133.5 1147.7188,1132.9219 L1147.7188,1135.6406 Z " fill="#000000"/><text fill="#000000" font-family="sans-serif" font-size="14" lengthAdjust="spacing" textLength="30" x="1165.25" y="1134.8467">Item</text><line style="stroke:#181818;stroke-width:0.5;" x1="957" x2="1371" y1="1146" y2="1146"/><text fill="#000000" font-family="sans-serif" font-size="14" lengthAdjust="spacing" textLength="96" x="962" y="1162.9951">-name : string</text><text fill="#000000" font-family="sans-serif" font-size="14" lengthAdjust="spacing" textLength="112" x="962" y="1179.292">-type : ItemType</text><text fill="#000000" font-family="sans-serif" font-size="14" lengthAdjust="spacing" textLength="71" x="962" y="1195.5889">-value : int</text><text fill="#000000" font-family="sans-serif" font-size="14" lengthAdjust="spacing" textLength="69" x="962" y="1211.8857">-price : int</text><line style="stroke:#181818;stroke-width:0.5;" x1="957" x2="1371" y1="1219.1875" y2="1219.1875"/><text fill="#000000" font-family="sans-serif" font-size="14" lengthAdjust="spacing" textLength="233" x="962" y="1236.1826">+Item(type : ItemType, value : int)</text><text fill="#000000" font-family="sans-serif" font-size="14" lengthAdjust="spacing" textLength="404" x="962" y="1252.4795">+Item(name : string, type : ItemType, value : int, price : int)</text><text fill="#000000" font-family="sans-serif" font-size="14" lengthAdjust="spacing" textLength="156" x="962" y="1268.7764">+getType() : ItemType</text><text fill="#000000" font-family="sans-serif" font-size="14" lengthAdjust="spacing" textLength="113" x="962" y="1285.0732">+getValue() : int</text><text fill="#000000" font-family="sans-serif" font-size="14" lengthAdjust="spacing" textLength="137" x="962" y="1301.3701">+getName() : string</text><text fill="#000000" font-family="sans-serif" font-size="14" lengthAdjust="spacing" textLength="109" x="962" y="1317.667">+getPrice() : int</text><text fill="#000000" font-family="sans-serif" font-size="14" lengthAdjust="spacing" textLength="176" x="962" y="1333.9639">+getDescription() : string</text></g><!--class Inventory--><g id="elem_Inventory"><rect codeLine="79" fill="#F1F1F1" height="145.7813" id="Inventory" rx="2.5" ry="2.5" style="stroke:#181818;stroke-width:0.5;" width="204" x="540" y="883.5"/><ellipse cx="606.25" cy="899.5" fill="#ADD1B2" rx="11" ry="11" style="stroke:#181818;stroke-width:1.0;"/><path d="M609.2188,905.1406 Q608.6406,905.4375 608,905.5781 Q607.3594,905.7344 606.6563,905.7344 Q604.1563,905.7344 602.8281,904.0938 Q601.5156,902.4375 601.5156,899.3125 Q601.5156,896.1875 602.8281,894.5313 Q604.1563,892.875 606.6563,892.875 Q607.3594,892.875 608,893.0313 Q608.6563,893.1875 609.2188,893.4844 L609.2188,896.2031 Q608.5938,895.625 608,895.3594 Q607.4063,895.0781 606.7813,895.0781 Q605.4375,895.0781 604.75,896.1563 Q604.0625,897.2188 604.0625,899.3125 Q604.0625,901.4063 604.75,902.4844 Q605.4375,903.5469 606.7813,903.5469 Q607.4063,903.5469 608,903.2813 Q608.5938,903 609.2188,902.4219 L609.2188,905.1406 Z " fill="#000000"/><text fill="#000000" font-family="sans-serif" font-size="14" lengthAdjust="spacing" textLength="63" x="626.75" y="904.3467">Inventory</text><line style="stroke:#181818;stroke-width:0.5;" x1="541" x2="743" y1="915.5" y2="915.5"/><text fill="#000000" font-family="sans-serif" font-size="14" lengthAdjust="spacing" textLength="153" x="546" y="932.4951">-items : vector&lt;Item&gt;</text><line style="stroke:#181818;stroke-width:0.5;" x1="541" x2="743" y1="939.7969" y2="939.7969"/><text fill="#000000" font-family="sans-serif" font-size="14" lengthAdjust="spacing" textLength="192" x="546" y="956.792">+addItem(item : Item) : void</text><text fill="#000000" font-family="sans-serif" font-size="14" lengthAdjust="spacing" textLength="100" x="546" y="973.0889">+show() : void</text><text fill="#000000" font-family="sans-serif" font-size="14" lengthAdjust="spacing" textLength="80" x="546" y="989.3857">+size() : int</text><text fill="#000000" font-family="sans-serif" font-size="14" lengthAdjust="spacing" textLength="185" x="546" y="1005.6826">+getItem(index : int) : Item</text><text fill="#000000" font-family="sans-serif" font-size="14" lengthAdjust="spacing" textLength="182" x="546" y="1021.9795">+remove(index : int) : void</text></g><!--class Player--><g id="elem_Player"><rect codeLine="93" fill="#F1F1F1" height="536.9063" id="Player" rx="2.5" ry="2.5" style="stroke:#181818;stroke-width:0.5;" width="256" x="514" y="262"/><ellipse cx="617.25" cy="278" fill="#ADD1B2" rx="11" ry="11" style="stroke:#181818;stroke-width:1.0;"/><path d="M620.2188,283.6406 Q619.6406,283.9375 619,284.0781 Q618.3594,284.2344 617.6563,284.2344 Q615.1563,284.2344 613.8281,282.5938 Q612.5156,280.9375 612.5156,277.8125 Q612.5156,274.6875 613.8281,273.0313 Q615.1563,271.375 617.6563,271.375 Q618.3594,271.375 619,271.5313 Q619.6563,271.6875 620.2188,271.9844 L620.2188,274.7031 Q619.5938,274.125 619,273.8594 Q618.4063,273.5781 617.7813,273.5781 Q616.4375,273.5781 615.75,274.6563 Q615.0625,275.7188 615.0625,277.8125 Q615.0625,279.9063 615.75,280.9844 Q616.4375,282.0469 617.7813,282.0469 Q618.4063,282.0469 619,281.7813 Q619.5938,281.5 620.2188,280.9219 L620.2188,283.6406 Z " fill="#000000"/><text fill="#000000" font-family="sans-serif" font-size="14" lengthAdjust="spacing" textLength="41" x="637.75" y="282.8467">Player</text><line style="stroke:#181818;stroke-width:0.5;" x1="515" x2="769" y1="294" y2="294"/><text fill="#000000" font-family="sans-serif" font-size="14" lengthAdjust="spacing" textLength="42" x="520" y="310.9951">-x : int</text><text fill="#000000" font-family="sans-serif" font-size="14" lengthAdjust="spacing" textLength="42" x="520" y="327.292">-y : int</text><text fill="#000000" font-family="sans-serif" font-size="14" lengthAdjust="spacing" textLength="65" x="520" y="343.5889">-gold : int</text><text fill="#000000" font-family="sans-serif" font-size="14" lengthAdjust="spacing" textLength="63" x="520" y="359.8857">-luck : int</text><text fill="#000000" font-family="sans-serif" font-size="14" lengthAdjust="spacing" textLength="73" x="520" y="376.1826">-mana : int</text><text fill="#000000" font-family="sans-serif" font-size="14" lengthAdjust="spacing" textLength="132" x="520" y="392.4795">-className : string</text><text fill="#000000" font-family="sans-serif" font-size="14" lengthAdjust="spacing" textLength="94" x="520" y="408.7764">-emoji : string</text><text fill="#000000" font-family="sans-serif" font-size="14" lengthAdjust="spacing" textLength="139" x="520" y="425.0732">-skipNextTurn : bool</text><text fill="#000000" font-family="sans-serif" font-size="14" lengthAdjust="spacing" textLength="144" x="520" y="441.3701">-inventory : Inventory</text><text fill="#000000" font-family="sans-serif" font-size="14" lengthAdjust="spacing" textLength="178" x="520" y="457.667">-attacks : vector&lt;Attack&gt;</text><line style="stroke:#181818;stroke-width:0.5;" x1="515" x2="769" y1="464.9688" y2="464.9688"/><text fill="#000000" font-family="sans-serif" font-size="14" lengthAdjust="spacing" textLength="63" x="520" y="481.9639">+Player()</text><text fill="#000000" font-family="sans-serif" font-size="14" lengthAdjust="spacing" textLength="222" x="520" y="498.2607">+setPosition(x : int, y : int) : void</text><text fill="#000000" font-family="sans-serif" font-size="14" lengthAdjust="spacing" textLength="84" x="520" y="514.5576">+getX() : int</text><text fill="#000000" font-family="sans-serif" font-size="14" lengthAdjust="spacing" textLength="84" x="520" y="530.8545">+getY() : int</text><text fill="#000000" font-family="sans-serif" font-size="14" lengthAdjust="spacing" textLength="98" x="520" y="547.1514">+getLife() : int</text><text fill="#000000" font-family="sans-serif" font-size="14" lengthAdjust="spacing" textLength="212" x="520" y="563.4482">+takeDamage(dmg : int) : void</text><text fill="#000000" font-family="sans-serif" font-size="14" lengthAdjust="spacing" textLength="107" x="520" y="579.7451">+isAlive() : bool</text><text fill="#000000" font-family="sans-serif" font-size="14" lengthAdjust="spacing" textLength="240" x="520" y="596.042">+chooseAttack(index : int) : Attack</text><text fill="#000000" font-family="sans-serif" font-size="14" lengthAdjust="spacing" textLength="175" x="520" y="612.3389">+heal(amount : int) : void</text><text fill="#000000" font-family="sans-serif" font-size="14" lengthAdjust="spacing" textLength="244" x="520" y="628.6357">+boostDamage(amount : int) : void</text><text fill="#000000" font-family="sans-serif" font-size="14" lengthAdjust="spacing" textLength="112" x="520" y="644.9326">+getMana() : int</text><text fill="#000000" font-family="sans-serif" font-size="14" lengthAdjust="spacing" textLength="188" x="520" y="661.2295">+useMana(cost : int) : bool</text><text fill="#000000" font-family="sans-serif" font-size="14" lengthAdjust="spacing" textLength="212" x="520" y="677.5264">+applyClass(choice : int) : void</text><text fill="#000000" font-family="sans-serif" font-size="14" lengthAdjust="spacing" textLength="174" x="520" y="693.8232">+getClassName() : string</text><text fill="#000000" font-family="sans-serif" font-size="14" lengthAdjust="spacing" textLength="134" x="520" y="710.1201">+getEmoji() : string</text><text fill="#000000" font-family="sans-serif" font-size="14" lengthAdjust="spacing" textLength="186" x="520" y="726.417">+useItem(index : int) : void</text><text fill="#000000" font-family="sans-serif" font-size="14" lengthAdjust="spacing" textLength="107" x="520" y="742.7139">+getGold() : int</text><text fill="#000000" font-family="sans-serif" font-size="14" lengthAdjust="spacing" textLength="204" x="520" y="759.0107">+addGold(amount : int) : void</text><text fill="#000000" font-family="sans-serif" font-size="14" lengthAdjust="spacing" textLength="117" x="520" y="775.3076">+goldRef() : int&amp;</text><text fill="#000000" font-family="sans-serif" font-size="14" lengthAdjust="spacing" textLength="107" x="520" y="791.6045">+getLuck() : int</text></g><!--class Merchant--><g id="elem_Merchant"><rect codeLine="134" fill="#F1F1F1" height="113.1875" id="Merchant" rx="2.5" ry="2.5" style="stroke:#181818;stroke-width:0.5;" width="416" x="956" y="900"/><ellipse cx="1127.25" cy="916" fill="#ADD1B2" rx="11" ry="11" style="stroke:#181818;stroke-width:1.0;"/><path d="M1130.2188,921.6406 Q1129.6406,921.9375 1129,922.0781 Q1128.3594,922.2344 1127.6563,922.2344 Q1125.1563,922.2344 1123.8281,920.5938 Q1122.5156,918.9375 1122.5156,915.8125 Q1122.5156,912.6875 1123.8281,911.0313 Q1125.1563,909.375 1127.6563,909.375 Q1128.3594,909.375 1129,909.5313 Q1129.6563,909.6875 1130.2188,909.9844 L1130.2188,912.7031 Q1129.5938,912.125 1129,911.8594 Q1128.4063,911.5781 1127.7813,911.5781 Q1126.4375,911.5781 1125.75,912.6563 Q1125.0625,913.7188 1125.0625,915.8125 Q1125.0625,917.9063 1125.75,918.9844 Q1126.4375,920.0469 1127.7813,920.0469 Q1128.4063,920.0469 1129,919.7813 Q1129.5938,919.5 1130.2188,918.9219 L1130.2188,921.6406 Z " fill="#000000"/><text fill="#000000" font-family="sans-serif" font-size="14" lengthAdjust="spacing" textLength="65" x="1147.75" y="920.8467">Merchant</text><line style="stroke:#181818;stroke-width:0.5;" x1="957" x2="1371" y1="932" y2="932"/><text fill="#000000" font-family="sans-serif" font-size="14" lengthAdjust="spacing" textLength="153" x="962" y="948.9951">-stock : vector&lt;Item&gt;</text><line style="stroke:#181818;stroke-width:0.5;" x1="957" x2="1371" y1="956.2969" y2="956.2969"/><text fill="#000000" font-family="sans-serif" font-size="14" lengthAdjust="spacing" textLength="87" x="962" y="973.292">+Merchant()</text><text fill="#000000" font-family="sans-serif" font-size="14" lengthAdjust="spacing" textLength="100" x="962" y="989.5889">+show() : void</text><text fill="#000000" font-family="sans-serif" font-size="14" lengthAdjust="spacing" textLength="404" x="962" y="1005.8857">+buy(choice : int, playerGold : int&amp;, inv : Inventory&amp;) : bool</text></g><!--class Board--><g id="elem_Board"><rect codeLine="146" fill="#F1F1F1" height="341.3438" id="Board" rx="2.5" ry="2.5" style="stroke:#181818;stroke-width:0.5;" width="272" x="876" y="360"/><ellipse cx="987.25" cy="376" fill="#ADD1B2" rx="11" ry="11" style="stroke:#181818;stroke-width:1.0;"/><path d="M990.2188,381.6406 Q989.6406,381.9375 989,382.0781 Q988.3594,382.2344 987.6563,382.2344 Q985.1563,382.2344 983.8281,380.5938 Q982.5156,378.9375 982.5156,375.8125 Q982.5156,372.6875 983.8281,371.0313 Q985.1563,369.375 987.6563,369.375 Q988.3594,369.375 989,369.5313 Q989.6563,369.6875 990.2188,369.9844 L990.2188,372.7031 Q989.5938,372.125 989,371.8594 Q988.4063,371.5781 987.7813,371.5781 Q986.4375,371.5781 985.75,372.6563 Q985.0625,373.7188 985.0625,375.8125 Q985.0625,377.9063 985.75,378.9844 Q986.4375,380.0469 987.7813,380.0469 Q988.4063,380.0469 989,379.7813 Q989.5938,379.5 990.2188,378.9219 L990.2188,381.6406 Z " fill="#000000"/><text fill="#000000" font-family="sans-serif" font-size="14" lengthAdjust="spacing" textLength="41" x="1007.75" y="380.8467">Board</text><line style="stroke:#181818;stroke-width:0.5;" x1="877" x2="1147" y1="392" y2="392"/><text fill="#000000" font-family="sans-serif" font-size="14" lengthAdjust="spacing" textLength="154" x="882" y="408.9951">-map : vector&lt;string&gt;</text><text fill="#000000" font-family="sans-serif" font-size="14" lengthAdjust="spacing" textLength="126" x="882" y="425.292">-heroEmoji : string</text><text fill="#000000" font-family="sans-serif" font-size="14" lengthAdjust="spacing" textLength="141" x="882" y="441.5889">-enemyEmoji : string</text><text fill="#000000" font-family="sans-serif" font-size="14" lengthAdjust="spacing" textLength="124" x="882" y="457.8857">-itemEmoji : string</text><text fill="#000000" font-family="sans-serif" font-size="14" lengthAdjust="spacing" textLength="119" x="882" y="474.1826">-wallEmoji : string</text><text fill="#000000" font-family="sans-serif" font-size="14" lengthAdjust="spacing" textLength="124" x="882" y="490.4795">-floorEmoji : string</text><line style="stroke:#181818;stroke-width:0.5;" x1="877" x2="1147" y1="497.7813" y2="497.7813"/><text fill="#000000" font-family="sans-serif" font-size="14" lengthAdjust="spacing" textLength="63" x="882" y="514.7764">+Board()</text><text fill="#000000" font-family="sans-serif" font-size="14" lengthAdjust="spacing" textLength="260" x="882" y="531.0732">+loadFromFile(filename : string) : void</text><text fill="#000000" font-family="sans-serif" font-size="14" lengthAdjust="spacing" textLength="110" x="882" y="547.3701">+display() : void</text><text fill="#000000" font-family="sans-serif" font-size="14" lengthAdjust="spacing" textLength="229" x="882" y="563.667">+symbolToEmoji(c : char) : string</text><text fill="#000000" font-family="sans-serif" font-size="14" lengthAdjust="spacing" textLength="195" x="882" y="579.9639">+getCell(x : int, y : int) : char</text><text fill="#000000" font-family="sans-serif" font-size="14" lengthAdjust="spacing" textLength="251" x="882" y="596.2607">+setCell(x : int, y : int, c : char) : void</text><text fill="#000000" font-family="sans-serif" font-size="14" lengthAdjust="spacing" textLength="199" x="882" y="612.5576">+isInside(x : int, y : int) : bool</text><text fill="#000000" font-family="sans-serif" font-size="14" lengthAdjust="spacing" textLength="114" x="882" y="628.8545">+getWidth() : int</text><text fill="#000000" font-family="sans-serif" font-size="14" lengthAdjust="spacing" textLength="120" x="882" y="645.1514">+getHeight() : int</text><text fill="#000000" font-family="sans-serif" font-size="14" lengthAdjust="spacing" textLength="227" x="882" y="661.4482">+findHero(x : int&amp;, y : int&amp;) : void</text><text fill="#000000" font-family="sans-serif" font-size="14" lengthAdjust="spacing" textLength="152" x="882" y="677.7451">+countEnemies() : int</text><text fill="#000000" font-family="sans-serif" font-size="14" lengthAdjust="spacing" textLength="216" x="882" y="694.042">+setHeroEmoji(e : string) : void</text></g><!--class Game--><g id="elem_Game"><rect codeLine="170" fill="#F1F1F1" height="194.6719" id="Game" rx="2.5" ry="2.5" style="stroke:#181818;stroke-width:0.5;" width="256" x="755" y="7"/><ellipse cx="858.25" cy="23" fill="#ADD1B2" rx="11" ry="11" style="stroke:#181818;stroke-width:1.0;"/><path d="M861.2188,28.6406 Q860.6406,28.9375 860,29.0781 Q859.3594,29.2344 858.6563,29.2344 Q856.1563,29.2344 854.8281,27.5938 Q853.5156,25.9375 853.5156,22.8125 Q853.5156,19.6875 854.8281,18.0313 Q856.1563,16.375 858.6563,16.375 Q859.3594,16.375 860,16.5313 Q860.6563,16.6875 861.2188,16.9844 L861.2188,19.7031 Q860.5938,19.125 860,18.8594 Q859.4063,18.5781 858.7813,18.5781 Q857.4375,18.5781 856.75,19.6563 Q856.0625,20.7188 856.0625,22.8125 Q856.0625,24.9063 856.75,25.9844 Q857.4375,27.0469 858.7813,27.0469 Q859.4063,27.0469 860,26.7813 Q860.5938,26.5 861.2188,25.9219 L861.2188,28.6406 Z " fill="#000000"/><text fill="#000000" font-family="sans-serif" font-size="14" lengthAdjust="spacing" textLength="41" x="878.75" y="27.8467">Game</text><line style="stroke:#181818;stroke-width:0.5;" x1="756" x2="1010" y1="39" y2="39"/><text fill="#000000" font-family="sans-serif" font-size="14" lengthAdjust="spacing" textLength="99" x="761" y="55.9951">-board : Board</text><text fill="#000000" font-family="sans-serif" font-size="14" lengthAdjust="spacing" textLength="100" x="761" y="72.292">-player : Player</text><text fill="#000000" font-family="sans-serif" font-size="14" lengthAdjust="spacing" textLength="149" x="761" y="88.5889">-merchant : Merchant</text><line style="stroke:#181818;stroke-width:0.5;" x1="756" x2="1010" y1="95.8906" y2="95.8906"/><text fill="#000000" font-family="sans-serif" font-size="14" lengthAdjust="spacing" textLength="63" x="761" y="112.8857">+Game()</text><text fill="#000000" font-family="sans-serif" font-size="14" lengthAdjust="spacing" textLength="86" x="761" y="129.1826">+run() : void</text><text fill="#000000" font-family="sans-serif" font-size="14" lengthAdjust="spacing" textLength="231" x="761" y="145.4795">+loadMap(filename : string) : void</text><text fill="#000000" font-family="sans-serif" font-size="14" lengthAdjust="spacing" textLength="93" x="761" y="161.7764">+loop() : void</text><text fill="#000000" font-family="sans-serif" font-size="14" lengthAdjust="spacing" textLength="244" x="761" y="178.0732">+movePlayer(dx : int, dy : int) : bool</text><text fill="#000000" font-family="sans-serif" font-size="14" lengthAdjust="spacing" textLength="234" x="761" y="194.3701">+combat(enemy : Enemy&amp;) : void</text></g><!--class Dice--><g id="elem_Dice"><rect codeLine="191" fill="#F1F1F1" height="64.2969" id="Dice" rx="2.5" ry="2.5" style="stroke:#181818;stroke-width:0.5;" width="142" x="779" y="924.5"/><ellipse cx="830.25" cy="940.5" fill="#ADD1B2" rx="11" ry="11" style="stroke:#181818;stroke-width:1.0;"/><path d="M833.2188,946.1406 Q832.6406,946.4375 832,946.5781 Q831.3594,946.7344 830.6563,946.7344 Q828.1563,946.7344 826.8281,945.0938 Q825.5156,943.4375 825.5156,940.3125 Q825.5156,937.1875 826.8281,935.5313 Q828.1563,933.875 830.6563,933.875 Q831.3594,933.875 832,934.0313 Q832.6563,934.1875 833.2188,934.4844 L833.2188,937.2031 Q832.5938,936.625 832,936.3594 Q831.4063,936.0781 830.7813,936.0781 Q829.4375,936.0781 828.75,937.1563 Q828.0625,938.2188 828.0625,940.3125 Q828.0625,942.4063 828.75,943.4844 Q829.4375,944.5469 830.7813,944.5469 Q831.4063,944.5469 832,944.2813 Q832.5938,944 833.2188,943.4219 L833.2188,946.1406 Z " fill="#000000"/><text fill="#000000" font-family="sans-serif" font-size="14" lengthAdjust="spacing" textLength="31" x="850.75" y="945.3467">Dice</text><line style="stroke:#181818;stroke-width:0.5;" x1="780" x2="920" y1="956.5" y2="956.5"/><line style="stroke:#181818;stroke-width:0.5;" x1="780" x2="920" y1="964.5" y2="964.5"/><text fill="#000000" font-family="sans-serif" font-size="14" lengthAdjust="spacing" textLength="130" x="785" y="981.4951">+roll(max : int) : int</text></g><!--class Input--><g id="elem_Input"><rect codeLine="195" fill="#F1F1F1" height="96.8906" id="Input" rx="2.5" ry="2.5" style="stroke:#181818;stroke-width:0.5;" width="125" x="68.5" y="482"/><ellipse cx="109.6" cy="498" fill="#ADD1B2" rx="11" ry="11" style="stroke:#181818;stroke-width:1.0;"/><path d="M112.5688,503.6406 Q111.9906,503.9375 111.35,504.0781 Q110.7094,504.2344 110.0063,504.2344 Q107.5063,504.2344 106.1781,502.5938 Q104.8656,500.9375 104.8656,497.8125 Q104.8656,494.6875 106.1781,493.0313 Q107.5063,491.375 110.0063,491.375 Q110.7094,491.375 111.35,491.5313 Q112.0063,491.6875 112.5688,491.9844 L112.5688,494.7031 Q111.9438,494.125 111.35,493.8594 Q110.7563,493.5781 110.1313,493.5781 Q108.7875,493.5781 108.1,494.6563 Q107.4125,495.7188 107.4125,497.8125 Q107.4125,499.9063 108.1,500.9844 Q108.7875,502.0469 110.1313,502.0469 Q110.7563,502.0469 111.35,501.7813 Q111.9438,501.5 112.5688,500.9219 L112.5688,503.6406 Z " fill="#000000"/><text fill="#000000" font-family="sans-serif" font-size="14" lengthAdjust="spacing" textLength="35" x="129.4" y="502.8467">Input</text><line style="stroke:#181818;stroke-width:0.5;" x1="69.5" x2="192.5" y1="514" y2="514"/><line style="stroke:#181818;stroke-width:0.5;" x1="69.5" x2="192.5" y1="522" y2="522"/><text fill="#000000" font-family="sans-serif" font-size="14" lengthAdjust="spacing" textLength="83" x="74.5" y="538.9951">+init() : void</text><text fill="#000000" font-family="sans-serif" font-size="14" lengthAdjust="spacing" textLength="113" x="74.5" y="555.292">+restore() : void</text><text fill="#000000" font-family="sans-serif" font-size="14" lengthAdjust="spacing" textLength="113" x="74.5" y="571.5889">+getKey() : char</text></g><!--reverse link Entity to Enemy--><g id="link_Entity_Enemy"><path codeLine="59" d="M507.1432,194.8024 C481.2932,265.0424 448.13,355.21 419.6,432.74 " fill="none" id="Entity-backto-Enemy" style="stroke:#181818;stroke-width:1.0;"/><polygon fill="none" points="513.36,177.91,501.5124,192.7301,512.774,196.8746,513.36,177.91" style="stroke:#181818;stroke-width:1.0;"/></g><!--reverse link Enemy to Attack--><g id="link_Enemy_Attack"><path codeLine="60" d="M351.3228,639.7282 C330.4828,708.7782 306.03,789.77 285.19,858.81 " fill="none" id="Enemy-backto-Attack" style="stroke:#181818;stroke-width:1.0;"/><polygon fill="#181818" points="354.79,628.24,349.227,632.8283,351.3228,639.7282,356.8858,635.1398,354.79,628.24" style="stroke:#181818;stroke-width:1.0;"/><text fill="#000000" font-family="sans-serif" font-size="13" lengthAdjust="spacing" textLength="8" x="344.4549" y="647.7228">1</text><text fill="#000000" font-family="sans-serif" font-size="13" lengthAdjust="spacing" textLength="7" x="280.1569" y="847.8409">*</text></g><!--reverse link Inventory to Item--><g id="link_Inventory_Item"><path codeLine="88" d="M735.4281,1036.679 C747.2381,1045.439 749.86,1046.7 762,1054 C822.45,1090.34 891.95,1123.02 955.98,1149.91 " fill="none" id="Inventory-backto-Item" style="stroke:#181818;stroke-width:1.0;"/><polygon fill="#181818" points="725.79,1029.53,728.226,1036.3172,735.4281,1036.679,732.992,1029.8918,725.79,1029.53" style="stroke:#181818;stroke-width:1.0;"/><text fill="#000000" font-family="sans-serif" font-size="13" lengthAdjust="spacing" textLength="8" x="725.395" y="1049.2892">1</text><text fill="#000000" font-family="sans-serif" font-size="13" lengthAdjust="spacing" textLength="7" x="940.7175" y="1143.6505">*</text></g><!--reverse link Entity to Player--><g id="link_Entity_Player"><path codeLine="127" d="M561.6307,195.4106 C567.5207,219.8906 570.27,231.34 577.64,261.95 " fill="none" id="Entity-backto-Player" style="stroke:#181818;stroke-width:1.0;"/><polygon fill="none" points="557.42,177.91,555.7972,196.8141,567.4642,194.007,557.42,177.91" style="stroke:#181818;stroke-width:1.0;"/></g><!--reverse link Player to Inventory--><g id="link_Player_Inventory"><path codeLine="128" d="M642,811.12 C642,841.83 642,858.87 642,883.39 " fill="none" id="Player-backto-Inventory" style="stroke:#181818;stroke-width:1.0;"/><polygon fill="#181818" points="642,799.12,638,805.12,642,811.12,646,805.12,642,799.12" style="stroke:#181818;stroke-width:1.0;"/><text fill="#000000" font-family="sans-serif" font-size="13" lengthAdjust="spacing" textLength="8" x="633.8813" y="819.3876">1</text><text fill="#000000" font-family="sans-serif" font-size="13" lengthAdjust="spacing" textLength="8" x="633.6063" y="872.5392">1</text></g><!--reverse link Player to Attack--><g id="link_Player_Attack"><path codeLine="129" d="M506.2754,787.6897 C500.5154,794.8297 502.11,792.4 496,799 C475.91,820.73 452.19,840.81 427.62,858.84 " fill="none" id="Player-backto-Attack" style="stroke:#181818;stroke-width:1.0;"/><polygon fill="#181818" points="513.81,778.35,506.9295,780.5083,506.2754,787.6897,513.156,785.5314,513.81,778.35" style="stroke:#181818;stroke-width:1.0;"/><text fill="#000000" font-family="sans-serif" font-size="13" lengthAdjust="spacing" textLength="8" x="498.1678" y="789.3187">1</text><text fill="#000000" font-family="sans-serif" font-size="13" lengthAdjust="spacing" textLength="7" x="433.4917" y="847.8732">*</text></g><!--reverse link Merchant to Item--><g id="link_Merchant_Item"><path codeLine="141" d="M1164,1025.24 C1164,1054.4 1164,1079.19 1164,1113.96 " fill="none" id="Merchant-backto-Item" style="stroke:#181818;stroke-width:1.0;"/><polygon fill="#181818" points="1164,1013.24,1160,1019.24,1164,1025.24,1168,1019.24,1164,1013.24" style="stroke:#181818;stroke-width:1.0;"/><text fill="#000000" font-family="sans-serif" font-size="13" lengthAdjust="spacing" textLength="8" x="1155.5125" y="1033.1328">1</text><text fill="#000000" font-family="sans-serif" font-size="13" lengthAdjust="spacing" textLength="7" x="1156.7648" y="1102.8901">*</text></g><!--reverse link Game to Board--><g id="link_Game_Board"><path codeLine="182" d="M915.9239,213.7201 C930.1339,260.4101 944.1,306.32 960.41,359.94 " fill="none" id="Game-backto-Board" style="stroke:#181818;stroke-width:1.0;"/><polygon fill="#181818" points="912.43,202.24,910.3503,209.1447,915.9239,213.7201,918.0037,206.8154,912.43,202.24" style="stroke:#181818;stroke-width:1.0;"/><text fill="#000000" font-family="sans-serif" font-size="13" lengthAdjust="spacing" textLength="8" x="906.218" y="221.7228">1</text><text fill="#000000" font-family="sans-serif" font-size="13" lengthAdjust="spacing" textLength="8" x="949.8911" y="348.9338">1</text></g><!--reverse link Game to Player--><g id="link_Game_Player"><path codeLine="183" d="M822.0824,212.6737 C804.6524,243.3537 790.51,268.22 770.16,304.03 " fill="none" id="Game-backto-Player" style="stroke:#181818;stroke-width:1.0;"/><polygon fill="#181818" points="828.01,202.24,821.5683,205.481,822.0824,212.6737,828.5241,209.4328,828.01,202.24" style="stroke:#181818;stroke-width:1.0;"/><text fill="#000000" font-family="sans-serif" font-size="13" lengthAdjust="spacing" textLength="8" x="815.8623" y="221.7228">1</text><text fill="#000000" font-family="sans-serif" font-size="13" lengthAdjust="spacing" textLength="8" x="777.8005" y="287.5771">1</text></g><!--reverse link Game to Merchant--><g id="link_Game_Merchant"><path codeLine="184" d="M1022.4229,147.601 C1080.4029,171.671 1132.28,204.81 1166,262 C1288.17,469.16 1218.47,775.26 1181.94,899.77 " fill="none" id="Game-backto-Merchant" style="stroke:#181818;stroke-width:1.0;"/><polygon fill="#181818" points="1011.34,143,1015.3478,148.9948,1022.4229,147.601,1018.4151,141.6062,1011.34,143" style="stroke:#181818;stroke-width:1.0;"/><text fill="#000000" font-family="sans-serif" font-size="13" lengthAdjust="spacing" textLength="8" x="1018.9909" y="141.8724">1</text><text fill="#000000" font-family="sans-serif" font-size="13" lengthAdjust="spacing" textLength="8" x="1175.6389" y="889.0055">1</text></g><!--link Game to Enemy--><g id="link_Game_Enemy"><path codeLine="185" d="M754.8,165.56 C726.72,178.08 697.02,190.85 669,202 C593.39,232.09 555.32,206.29 496,262 C447.92,307.15 421.3585,370.3681 405.2885,426.9781 " fill="none" id="Game-to-Enemy" style="stroke:#181818;stroke-width:1.0;stroke-dasharray:7.0,7.0;"/><polygon fill="#181818" points="403.65,432.75,409.9557,425.1844,405.0154,427.94,402.2598,422.9998,403.65,432.75" style="stroke:#181818;stroke-width:1.0;"/></g><!--link Game to Item--><g id="link_Game_Item"><path codeLine="186" d="M1011.23,135.1 C1083.92,158.18 1171.04,197.47 1226,262 C1404.4,471.49 1353.23,586.31 1390,859 C1401.58,944.89 1428.43,976.32 1390,1054 C1379.11,1076.01 1368.1046,1091.6801 1350.6946,1109.5701 " fill="none" id="Game-to-Item" style="stroke:#181818;stroke-width:1.0;stroke-dasharray:7.0,7.0;"/><polygon fill="#181818" points="1346.51,1113.87,1355.6535,1110.2098,1349.9971,1110.2867,1349.9202,1104.6304,1346.51,1113.87" style="stroke:#181818;stroke-width:1.0;"/></g><!--link Player to Dice--><g id="link_Player_Dice"><path codeLine="201" d="M770.03,792.48 C796.07,845.56 817.3376,888.9132 832.0976,919.0032 " fill="none" id="Player-to-Dice" style="stroke:#181818;stroke-width:1.0;stroke-dasharray:7.0,7.0;"/><polygon fill="#181818" points="834.74,924.39,834.3676,914.5482,832.538,919.901,827.1852,918.0714,834.74,924.39" style="stroke:#181818;stroke-width:1.0;"/></g><!--link Game to Dice--><g id="link_Game_Dice"><path codeLine="202" d="M866.04,202.09 C863.17,221.85 860.61,242.55 859,262 C837.9,517 845.432,820.5033 848.662,918.3233 " fill="none" id="Game-to-Dice" style="stroke:#181818;stroke-width:1.0;stroke-dasharray:7.0,7.0;"/><polygon fill="#181818" points="848.86,924.32,852.5608,915.1929,848.695,919.3227,844.5652,915.4569,848.86,924.32" style="stroke:#181818;stroke-width:1.0;"/></g><!--SRC=[bLRRSjis47tNLt3ye529dBQlciGpj4JBdEhYKfHJFtKW4f9GamI786shQVwzYmj9y1et3v6vM2nspvuz07icSO9I51b-Y1YpiYmbXpp3Za_Z7Va76x-EHX- -TlmRVJ3ipNwzwrd5SHuP40tvpzubmSRtaM6idEMz1x_tjlNu1BzhQ-dCHpz6qjd9S5Iwtcut-zrVA-VEBZyM5lZRtBqld_dAskriOs4RjzRExd4JPHfsd97i8ewwDc8KOMDcC2WzFWbBI8xSGk8CFZyfRxFcDzMS9iABC2iaBzYSWF50QIYC9vojm4yOYt0PUiOB5A4JDeFef4B0pmibmL1zbkTPV-o72vEGznOMY6FBNAwD2CLeJbcccJBUX9dMF96q_6nYeCURDe9Dsv4c1IOR22CmANCJPeMA3XPOrofiqyuZ2fkMweyXkjhhfv-m0aS5ALBaDx334VsRr4qfVaLfiAHXeE67H3QCDnJx6Ks_oFHk59NW2BCMl0J51Mi7A3O_jyFkYiDheAGe3cYaMbKXmr5HZF_ox_MrJ68agxtwxShu2BQhZrU5To-2ZcUlZLyCP_DeRxojEmmcd-TU7Yfc53ClR2yep7Lg9YdnzIdapcPZurJVDQdS6ZGTsZNL3vgqkAMbA1OU-Suc4tle_C03DtqNcFafIJ92OtqBj4ZX5h_W66XJ49500XgPU3wIIYW8HAtSGILQgWXVPsVwQjOj8EZDT6I8EC1lbH1nc-GJS1uKhR5Sw5ILgKuYiRcNGWyhwybs1udp4A8BJbNrRneXBjhVf_hCXJc8NbtLj4yHTzCYOST0isUIRF1RvkLfNCauDA4iTLOrQ7ZQ1O2o5bFIYW4ZA2EYysy5-IuDN5LR_cpswQbf-7_NIky5vPyfPLX9HgFHIW-usncZq4GHpUEi8p94OuLuzpef9Q_bd3CiR7vvQzIIGqaINkQyUoRaMKrf8-oywEzxrHEExUAz7fEBUYrL63TXwwyFLbryB3QDoqRbIenvf8OIItwC5ENBCOBVYcNDnNS8zTfsv_VMnXkSipLE_JE2KkIaiOoA6MhfJE5NiBWbAuVyKciFAAf8kReNnrC-GVhiZCi-0o9b9k_NaTkjvIxWBbfR3uD5tbAu8rM54Kgg-YGRRiJ26QVKRei1vXTaXvqBReVv5OLXX_aOKfgsx9zaPWhJaABWBgNH7GcnUOJ_QlTN3Uo0C8vkGzWlqO66dYp2z649y4pRmp37OTWfFTozqAXEfwcXHzKanOaP2N1dKFqH_8q4sRafOVUOdCxrPzqHHl8Usb4479SHnxM3VJw4_0L3CAi5O3oiQgVPWU700t5fhMt3d6ytdhjTsNjtCiYi9M-H9DP1a6mcMohVBd9cPyM02_eLB9-L8oKoNWhXalTj7jSRoucnHibFE04CI-hx-BMjxfwWR4tGrHkVHWUKcOBhO1UFmh6EbgXJLoPPPSkiActPorh5okVFD-hvMNuE3_hUSrQEPpcklHjinuBBptU98WK2HqWJTgMynGChoJFbIcAIrP5BCGXXYitcVV0xbZCd9WLYALNc1V2ZgtB4rty0]--></g></svg>