<?xml version="1.0" encoding="us-ascii" standalone="no"?><svg xmlns="http://www.w3.org/2000/svg" xmlns:xlink="http://www.w3.org/1999/xlink" contentStyleType="text/css" height="1511px" preserveAspectRatio="none" style="width:1589px;height:1511px;background:#FFFFFF;" version="1.1" viewBox="0 0 1589 1511" width="1589px" zoomAndPan="magnify"><defs/><g><!--class AttackType--><g id="elem_AttackType"><rect codeLine="6" fill="#F1F1F1" height="96.8906" id="AttackType" rx="2.5" ry="2.5" style="stroke:#181818;stroke-width:0.5;" width="109" x="15" y="137.5"/><ellipse cx="30" cy="153.5" fill="#EB937F" rx="11" ry="11" style="stroke:#181818;stroke-width:1.0;"/><path d="M34.1094,159.5 L26.3906,159.5 L26.3906,147.1094 L34.1094,147.1094 L34.1094,149.2656 L28.8438,149.2656 L28.8438,151.9375 L33.6094,151.9375 L33.6094,154.0938 L28.8438,154.0938 L28.8438,157.3438 L34.1094,157.3438 L34.1094,159.5 Z " fill="#000000"/><text fill="#000000" font-family="sans-serif" font-size="14" lengthAdjust="spacing" textLength="77" x="44" y="158.3467">AttackType</text><line style="stroke:#181818;stroke-width:0.5;" x1="16" x2="123" y1="169.5" y2="169.5"/><text fill="#000000" font-family="sans-serif" font-size="14" lengthAdjust="spacing" textLength="40" x="21" y="186.4951">LIGHT</text><text fill="#000000" font-family="sans-serif" font-size="14" lengthAdjust="spacing" textLength="46" x="21" y="202.792">HEAVY</text><text fill="#000000" font-family="sans-serif" font-size="14" lengthAdjust="spacing" textLength="45" x="21" y="219.0889">MAGIC</text><line style="stroke:#181818;stroke-width:0.5;" x1="16" x2="123" y1="226.3906" y2="226.3906"/></g><!--class ItemType--><g id="elem_ItemType"><rect codeLine="12" fill="#F1F1F1" height="80.5938" id="ItemType" rx="2.5" ry="2.5" style="stroke:#181818;stroke-width:0.5;" width="130" x="159.5" y="145.5"/><ellipse cx="189.8" cy="161.5" fill="#EB937F" rx="11" ry="11" style="stroke:#181818;stroke-width:1.0;"/><path d="M193.9094,167.5 L186.1906,167.5 L186.1906,155.1094 L193.9094,155.1094 L193.9094,157.2656 L188.6438,157.2656 L188.6438,159.9375 L193.4094,159.9375 L193.4094,162.0938 L188.6438,162.0938 L188.6438,165.3438 L193.9094,165.3438 L193.9094,167.5 Z " fill="#000000"/><text fill="#000000" font-family="sans-serif" font-size="14" lengthAdjust="spacing" textLength="64" x="207.2" y="166.3467">ItemType</text><line style="stroke:#181818;stroke-width:0.5;" x1="160.5" x2="288.5" y1="177.5" y2="177.5"/><text fill="#000000" font-family="sans-serif" font-size="14" lengthAdjust="spacing" textLength="84" x="165.5" y="194.4951">BONUS_LIFE</text><text fill="#000000" font-family="sans-serif" font-size="14" lengthAdjust="spacing" textLength="118" x="165.5" y="210.792">BONUS_DAMAGE</text><line style="stroke:#181818;stroke-width:0.5;" x1="160.5" x2="288.5" y1="218.0938" y2="218.0938"/></g><!--class Entity--><g id="elem_Entity"><rect codeLine="20" fill="#F1F1F1" height="145.7813" id="Entity" rx="2.5" ry="2.5" style="stroke:#181818;stroke-width:0.5;" width="224" x="366.5" y="113"/><ellipse cx="455.25" cy="129" fill="#ADD1B2" rx="11" ry="11" style="stroke:#181818;stroke-width:1.0;"/><path d="M458.2188,134.6406 Q457.6406,134.9375 457,135.0781 Q456.3594,135.2344 455.6563,135.2344 Q453.1563,135.2344 451.8281,133.5938 Q450.5156,131.9375 450.5156,128.8125 Q450.5156,125.6875 451.8281,124.0313 Q453.1563,122.375 455.6563,122.375 Q456.3594,122.375 457,122.5313 Q457.6563,122.6875 458.2188,122.9844 L458.2188,125.7031 Q457.5938,125.125 457,124.8594 Q456.4063,124.5781 455.7813,124.5781 Q454.4375,124.5781 453.75,125.6563 Q453.0625,126.7188 453.0625,128.8125 Q453.0625,130.9063 453.75,131.9844 Q454.4375,133.0469 455.7813,133.0469 Q456.4063,133.0469 457,132.7813 Q457.5938,132.5 458.2188,131.9219 L458.2188,134.6406 Z " fill="#000000"/><text fill="#000000" font-family="sans-serif" font-size="14" lengthAdjust="spacing" textLength="38" x="475.75" y="133.8467">Entity</text><line style="stroke:#181818;stroke-width:0.5;" x1="367.5" x2="589.5" y1="145" y2="145"/><text fill="#000000" font-family="sans-serif" font-size="14" lengthAdjust="spacing" textLength="96" x="372.5" y="161.9951">-name : string</text><text fill="#000000" font-family="sans-serif" font-size="14" lengthAdjust="spacing" textLength="54" x="372.5" y="178.292">-life : int</text><line style="stroke:#181818;stroke-width:0.5;" x1="367.5" x2="589.5" y1="185.5938" y2="185.5938"/><text fill="#000000" font-family="sans-serif" font-size="14" lengthAdjust="spacing" textLength="208" x="372.5" y="202.5889">+Entity(name : string, life : int)</text><text fill="#000000" font-family="sans-serif" font-size="14" lengthAdjust="spacing" textLength="107" x="372.5" y="218.8857">+isAlive() : bool</text><text fill="#000000" font-family="sans-serif" font-size="14" lengthAdjust="spacing" textLength="98" x="372.5" y="235.1826">+getLife() : int</text><text fill="#000000" font-family="sans-serif" font-size="14" lengthAdjust="spacing" textLength="212" x="372.5" y="251.4795">+takeDamage(dmg : int) : void</text></g><!--class Attack--><g id="elem_Attack"><rect codeLine="32" fill="#F1F1F1" height="194.6719" id="Attack" rx="2.5" ry="2.5" style="stroke:#181818;stroke-width:0.5;" width="498" x="47.5" y="1022"/><ellipse cx="270.75" cy="1038" fill="#ADD1B2" rx="11" ry="11" style="stroke:#181818;stroke-width:1.0;"/><path d="M273.7188,1043.6406 Q273.1406,1043.9375 272.5,1044.0781 Q271.8594,1044.2344 271.1563,1044.2344 Q268.6563,1044.2344 267.3281,1042.5938 Q266.0156,1040.9375 266.0156,1037.8125 Q266.0156,1034.6875 267.3281,1033.0313 Q268.6563,1031.375 271.1563,1031.375 Q271.8594,1031.375 272.5,1031.5313 Q273.1563,1031.6875 273.7188,1031.9844 L273.7188,1034.7031 Q273.0938,1034.125 272.5,1033.8594 Q271.9063,1033.5781 271.2813,1033.5781 Q269.9375,1033.5781 269.25,1034.6563 Q268.5625,1035.7188 268.5625,1037.8125 Q268.5625,1039.9063 269.25,1040.9844 Q269.9375,1042.0469 271.2813,1042.0469 Q271.9063,1042.0469 272.5,1041.7813 Q273.0938,1041.5 273.7188,1040.9219 L273.7188,1043.6406 Z " fill="#000000"/><text fill="#000000" font-family="sans-serif" font-size="14" lengthAdjust="spacing" textLength="43" x="291.25" y="1042.8467">Attack</text><line style="stroke:#181818;stroke-width:0.5;" x1="48.5" x2="544.5" y1="1054" y2="1054"/><text fill="#000000" font-family="sans-serif" font-size="14" lengthAdjust="spacing" textLength="96" x="53.5" y="1070.9951">-name : string</text><text fill="#000000" font-family="sans-serif" font-size="14" lengthAdjust="spacing" textLength="91" x="53.5" y="1087.292">-damage : int</text><text fill="#000000" font-family="sans-serif" font-size="14" lengthAdjust="spacing" textLength="105" x="53.5" y="1103.5889">-manaCost : int</text><text fill="#000000" font-family="sans-serif" font-size="14" lengthAdjust="spacing" textLength="125" x="53.5" y="1119.8857">-type : AttackType</text><line style="stroke:#181818;stroke-width:0.5;" x1="48.5" x2="544.5" y1="1127.1875" y2="1127.1875"/><text fill="#000000" font-family="sans-serif" font-size="14" lengthAdjust="spacing" textLength="486" x="53.5" y="1144.1826">+Attack(name : string, damage : int, manaCost : int, type : AttackType)</text><text fill="#000000" font-family="sans-serif" font-size="14" lengthAdjust="spacing" textLength="137" x="53.5" y="1160.4795">+getName() : string</text><text fill="#000000" font-family="sans-serif" font-size="14" lengthAdjust="spacing" textLength="133" x="53.5" y="1176.7764">+getDamage() : int</text><text fill="#000000" font-family="sans-serif" font-size="14" lengthAdjust="spacing" textLength="144" x="53.5" y="1193.0732">+getManaCost() : int</text><text fill="#000000" font-family="sans-serif" font-size="14" lengthAdjust="spacing" textLength="169" x="53.5" y="1209.3701">+getType() : AttackType</text></g><!--class Enemy--><g id="elem_Enemy"><rect codeLine="47" fill="#F1F1F1" height="194.6719" id="Enemy" rx="2.5" ry="2.5" style="stroke:#181818;stroke-width:0.5;" width="190" x="167.5" y="596"/><ellipse cx="234.75" cy="612" fill="#ADD1B2" rx="11" ry="11" style="stroke:#181818;stroke-width:1.0;"/><path d="M237.7188,617.6406 Q237.1406,617.9375 236.5,618.0781 Q235.8594,618.2344 235.1563,618.2344 Q232.6563,618.2344 231.3281,616.5938 Q230.0156,614.9375 230.0156,611.8125 Q230.0156,608.6875 231.3281,607.0313 Q232.6563,605.375 235.1563,605.375 Q235.8594,605.375 236.5,605.5313 Q237.1563,605.6875 237.7188,605.9844 L237.7188,608.7031 Q237.0938,608.125 236.5,607.8594 Q235.9063,607.5781 235.2813,607.5781 Q233.9375,607.5781 233.25,608.6563 Q232.5625,609.7188 232.5625,611.8125 Q232.5625,613.9063 233.25,614.9844 Q233.9375,616.0469 235.2813,616.0469 Q235.9063,616.0469 236.5,615.7813 Q237.0938,615.5 237.7188,614.9219 L237.7188,617.6406 Z " fill="#000000"/><text fill="#000000" font-family="sans-serif" font-size="14" lengthAdjust="spacing" textLength="47" x="255.25" y="616.8467">Enemy</text><line style="stroke:#181818;stroke-width:0.5;" x1="168.5" x2="356.5" y1="628" y2="628"/><text fill="#000000" font-family="sans-serif" font-size="14" lengthAdjust="spacing" textLength="87" x="173.5" y="644.9951">-race : string</text><text fill="#000000" font-family="sans-serif" font-size="14" lengthAdjust="spacing" textLength="94" x="173.5" y="661.292">-emoji : string</text><text fill="#000000" font-family="sans-serif" font-size="14" lengthAdjust="spacing" textLength="114" x="173.5" y="677.5889">-rewardGold : int</text><text fill="#000000" font-family="sans-serif" font-size="14" lengthAdjust="spacing" textLength="178" x="173.5" y="693.8857">-attacks : vector&lt;Attack&gt;</text><line style="stroke:#181818;stroke-width:0.5;" x1="168.5" x2="356.5" y1="701.1875" y2="701.1875"/><text fill="#000000" font-family="sans-serif" font-size="14" lengthAdjust="spacing" textLength="151" x="173.5" y="718.1826">+Enemy(race : string)</text><text fill="#000000" font-family="sans-serif" font-size="14" lengthAdjust="spacing" textLength="132" x="173.5" y="734.4795">+getRace() : string</text><text fill="#000000" font-family="sans-serif" font-size="14" lengthAdjust="spacing" textLength="134" x="173.5" y="750.7764">+getEmoji() : string</text><text fill="#000000" font-family="sans-serif" font-size="14" lengthAdjust="spacing" textLength="127" x="173.5" y="767.0732">+getReward() : int</text><text fill="#000000" font-family="sans-serif" font-size="14" lengthAdjust="spacing" textLength="174" x="173.5" y="783.3701">+randomAttack() : Attack</text></g><!--class Item--><g id="elem_Item"><rect codeLine="65" fill="#F1F1F1" height="227.2656" id="Item" rx="2.5" ry="2.5" style="stroke:#181818;stroke-width:0.5;" width="416" x="905.5" y="1277"/><ellipse cx="1094.25" cy="1293" fill="#ADD1B2" rx="11" ry="11" style="stroke:#181818;stroke-width:1.0;"/><path d="M1097.2188,1298.6406 Q1096.6406,1298.9375 1096,1299.0781 Q1095.3594,1299.2344 1094.6563,1299.2344 Q1092.1563,1299.2344 1090.8281,1297.5938 Q1089.5156,1295.9375 1089.5156,1292.8125 Q1089.5156,1289.6875 1090.8281,1288.0313 Q1092.1563,1286.375 1094.6563,1286.375 Q1095.3594,1286.375 1096,1286.5313 Q1096.6563,1286.6875 1097.2188,1286.9844 L1097.2188,1289.7031 Q1096.5938,1289.125 1096,1288.8594 Q1095.4063,1288.5781 1094.7813,1288.5781 Q1093.4375,1288.5781 1092.75,1289.6563 Q1092.0625,1290.7188 1092.0625,1292.8125 Q1092.0625,1294.9063 1092.75,1295.9844 Q1093.4375,1297.0469 1094.7813,1297.0469 Q1095.4063,1297.0469 1096,1296.7813 Q1096.5938,1296.5 1097.2188,1295.9219 L1097.2188,1298.6406 Z " fill="#000000"/><text fill="#000000" font-family="sans-serif" font-size="14" lengthAdjust="spacing" textLength="30" x="1114.75" y="1297.8467">Item</text><line style="stroke:#181818;stroke-width:0.5;" x1="906.5" x2="1320.5" y1="1309" y2="1309"/><text fill="#000000" font-family="sans-serif" font-size="14" lengthAdjust="spacing" textLength="96" x="911.5" y="1325.9951">-name : string</text><text fill="#000000" font-family="sans-serif" font-size="14" lengthAdjust="spacing" textLength="112" x="911.5" y="1342.292">-type : ItemType</text><text fill="#000000" font-family="sans-serif" font-size="14" lengthAdjust="spacing" textLength="71" x="911.5" y="1358.5889">-value : int</text><text fill="#000000" font-family="sans-serif" font-size="14" lengthAdjust="spacing" textLength="69" x="911.5" y="1374.8857">-price : int</text><line style="stroke:#181818;stroke-width:0.5;" x1="906.5" x2="1320.5" y1="1382.1875" y2="1382.1875"/><text fill="#000000" font-family="sans-serif" font-size="14" lengthAdjust="spacing" textLength="233" x="911.5" y="1399.1826">+Item(type : ItemType, value : int)</text><text fill="#000000" font-family="sans-serif" font-size="14" lengthAdjust="spacing" textLength="404" x="911.5" y="1415.4795">+Item(name : string, type : ItemType, value : int, price : int)</text><text fill="#000000" font-family="sans-serif" font-size="14" lengthAdjust="spacing" textLength="156" x="911.5" y="1431.7764">+getType() : ItemType</text><text fill="#000000" font-family="sans-serif" font-size="14" lengthAdjust="spacing" textLength="113" x="911.5" y="1448.0732">+getValue() : int</text><text fill="#000000" font-family="sans-serif" font-size="14" lengthAdjust="spacing" textLength="137" x="911.5" y="1464.3701">+getName() : string</text><text fill="#000000" font-family="sans-serif" font-size="14" lengthAdjust="spacing" textLength="109" x="911.5" y="1480.667">+getPrice() : int</text><text fill="#000000" font-family="sans-serif" font-size="14" lengthAdjust="spacing" textLength="176" x="911.5" y="1496.9639">+getDescription() : string</text></g><!--class Inventory--><g id="elem_Inventory"><rect codeLine="79" fill="#F1F1F1" height="145.7813" id="Inventory" rx="2.5" ry="2.5" style="stroke:#181818;stroke-width:0.5;" width="204" x="646.5" y="1046.5"/><ellipse cx="712.75" cy="1062.5" fill="#ADD1B2" rx="11" ry="11" style="stroke:#181818;stroke-width:1.0;"/><path d="M715.7188,1068.1406 Q715.1406,1068.4375 714.5,1068.5781 Q713.8594,1068.7344 713.1563,1068.7344 Q710.6563,1068.7344 709.3281,1067.0938 Q708.0156,1065.4375 708.0156,1062.3125 Q708.0156,1059.1875 709.3281,1057.5313 Q710.6563,1055.875 713.1563,1055.875 Q713.8594,1055.875 714.5,1056.0313 Q715.1563,1056.1875 715.7188,1056.4844 L715.7188,1059.2031 Q715.0938,1058.625 714.5,1058.3594 Q713.9063,1058.0781 713.2813,1058.0781 Q711.9375,1058.0781 711.25,1059.1563 Q710.5625,1060.2188 710.5625,1062.3125 Q710.5625,1064.4063 711.25,1065.4844 Q711.9375,1066.5469 713.2813,1066.5469 Q713.9063,1066.5469 714.5,1066.2813 Q715.0938,1066 715.7188,1065.4219 L715.7188,1068.1406 Z " fill="#000000"/><text fill="#000000" font-family="sans-serif" font-size="14" lengthAdjust="spacing" textLength="63" x="733.25" y="1067.3467">Inventory</text><line style="stroke:#181818;stroke-width:0.5;" x1="647.5" x2="849.5" y1="1078.5" y2="1078.5"/><text fill="#000000" font-family="sans-serif" font-size="14" lengthAdjust="spacing" textLength="153" x="652.5" y="1095.4951">-items : vector&lt;Item&gt;</text><line style="stroke:#181818;stroke-width:0.5;" x1="647.5" x2="849.5" y1="1102.7969" y2="1102.7969"/><text fill="#000000" font-family="sans-serif" font-size="14" lengthAdjust="spacing" textLength="192" x="652.5" y="1119.792">+addItem(item : Item) : void</text><text fill="#000000" font-family="sans-serif" font-size="14" lengthAdjust="spacing" textLength="100" x="652.5" y="1136.0889">+show() : void</text><text fill="#000000" font-family="sans-serif" font-size="14" lengthAdjust="spacing" textLength="80" x="652.5" y="1152.3857">+size() : int</text><text fill="#000000" font-family="sans-serif" font-size="14" lengthAdjust="spacing" textLength="185" x="652.5" y="1168.6826">+getItem(index : int) : Item</text><text fill="#000000" font-family="sans-serif" font-size="14" lengthAdjust="spacing" textLength="182" x="652.5" y="1184.9795">+remove(index : int) : void</text></g><!--class Player--><g id="elem_Player"><rect codeLine="93" fill="#F1F1F1" height="536.9063" id="Player" rx="2.5" ry="2.5" style="stroke:#181818;stroke-width:0.5;" width="256" x="392.5" y="425"/><ellipse cx="495.75" cy="441" fill="#ADD1B2" rx="11" ry="11" style="stroke:#181818;stroke-width:1.0;"/><path d="M498.7188,446.6406 Q498.1406,446.9375 497.5,447.0781 Q496.8594,447.2344 496.1563,447.2344 Q493.6563,447.2344 492.3281,445.5938 Q491.0156,443.9375 491.0156,440.8125 Q491.0156,437.6875 492.3281,436.0313 Q493.6563,434.375 496.1563,434.375 Q496.8594,434.375 497.5,434.5313 Q498.1563,434.6875 498.7188,434.9844 L498.7188,437.7031 Q498.0938,437.125 497.5,436.8594 Q496.9063,436.5781 496.2813,436.5781 Q494.9375,436.5781 494.25,437.6563 Q493.5625,438.7188 493.5625,440.8125 Q493.5625,442.9063 494.25,443.9844 Q494.9375,445.0469 496.2813,445.0469 Q496.9063,445.0469 497.5,444.7813 Q498.0938,444.5 498.7188,443.9219 L498.7188,446.6406 Z " fill="#000000"/><text fill="#000000" font-family="sans-serif" font-size="14" lengthAdjust="spacing" textLength="41" x="516.25" y="445.8467">Player</text><line style="stroke:#181818;stroke-width:0.5;" x1="393.5" x2="647.5" y1="457" y2="457"/><text fill="#000000" font-family="sans-serif" font-size="14" lengthAdjust="spacing" textLength="42" x="398.5" y="473.9951">-x : int</text><text fill="#000000" font-family="sans-serif" font-size="14" lengthAdjust="spacing" textLength="42" x="398.5" y="490.292">-y : int</text><text fill="#000000" font-family="sans-serif" font-size="14" lengthAdjust="spacing" textLength="65" x="398.5" y="506.5889">-gold : int</text><text fill="#000000" font-family="sans-serif" font-size="14" lengthAdjust="spacing" textLength="63" x="398.5" y="522.8857">-luck : int</text><text fill="#000000" font-family="sans-serif" font-size="14" lengthAdjust="spacing" textLength="73" x="398.5" y="539.1826">-mana : int</text><text fill="#000000" font-family="sans-serif" font-size="14" lengthAdjust="spacing" textLength="132" x="398.5" y="555.4795">-className : string</text><text fill="#000000" font-family="sans-serif" font-size="14" lengthAdjust="spacing" textLength="94" x="398.5" y="571.7764">-emoji : string</text><text fill="#000000" font-family="sans-serif" font-size="14" lengthAdjust="spacing" textLength="139" x="398.5" y="588.0732">-skipNextTurn : bool</text><text fill="#000000" font-family="sans-serif" font-size="14" lengthAdjust="spacing" textLength="144" x="398.5" y="604.3701">-inventory : Inventory</text><text fill="#000000" font-family="sans-serif" font-size="14" lengthAdjust="spacing" textLength="178" x="398.5" y="620.667">-attacks : vector&lt;Attack&gt;</text><line style="stroke:#181818;stroke-width:0.5;" x1="393.5" x2="647.5" y1="627.9688" y2="627.9688"/><text fill="#000000" font-family="sans-serif" font-size="14" lengthAdjust="spacing" textLength="63" x="398.5" y="644.9639">+Player()</text><text fill="#000000" font-family="sans-serif" font-size="14" lengthAdjust="spacing" textLength="222" x="398.5" y="661.2607">+setPosition(x : int, y : int) : void</text><text fill="#000000" font-family="sans-serif" font-size="14" lengthAdjust="spacing" textLength="84" x="398.5" y="677.5576">+getX() : int</text><text fill="#000000" font-family="sans-serif" font-size="14" lengthAdjust="spacing" textLength="84" x="398.5" y="693.8545">+getY() : int</text><text fill="#000000" font-family="sans-serif" font-size="14" lengthAdjust="spacing" textLength="98" x="398.5" y="710.1514">+getLife() : int</text><text fill="#000000" font-family="sans-serif" font-size="14" lengthAdjust="spacing" textLength="212" x="398.5" y="726.4482">+takeDamage(dmg : int) : void</text><text fill="#000000" font-family="sans-serif" font-size="14" lengthAdjust="spacing" textLength="107" x="398.5" y="742.7451">+isAlive() : bool</text><text fill="#000000" font-family="sans-serif" font-size="14" lengthAdjust="spacing" textLength="240" x="398.5" y="759.042">+chooseAttack(index : int) : Attack</text><text fill="#000000" font-family="sans-serif" font-size="14" lengthAdjust="spacing" textLength="175" x="398.5" y="775.3389">+heal(amount : int) : void</text><text fill="#000000" font-family="sans-serif" font-size="14" lengthAdjust="spacing" textLength="244" x="398.5" y="791.6357">+boostDamage(amount : int) : void</text><text fill="#000000" font-family="sans-serif" font-size="14" lengthAdjust="spacing" textLength="112" x="398.5" y="807.9326">+getMana() : int</text><text fill="#000000" font-family="sans-serif" font-size="14" lengthAdjust="spacing" textLength="188" x="398.5" y="824.2295">+useMana(cost : int) : bool</text><text fill="#000000" font-family="sans-serif" font-size="14" lengthAdjust="spacing" textLength="212" x="398.5" y="840.5264">+applyClass(choice : int) : void</text><text fill="#000000" font-family="sans-serif" font-size="14" lengthAdjust="spacing" textLength="174" x="398.5" y="856.8232">+getClassName() : string</text><text fill="#000000" font-family="sans-serif" font-size="14" lengthAdjust="spacing" textLength="134" x="398.5" y="873.1201">+getEmoji() : string</text><text fill="#000000" font-family="sans-serif" font-size="14" lengthAdjust="spacing" textLength="186" x="398.5" y="889.417">+useItem(index : int) : void</text><text fill="#000000" font-family="sans-serif" font-size="14" lengthAdjust="spacing" textLength="107" x="398.5" y="905.7139">+getGold() : int</text><text fill="#000000" font-family="sans-serif" font-size="14" lengthAdjust="spacing" textLength="204" x="398.5" y="922.0107">+addGold(amount : int) : void</text><text fill="#000000" font-family="sans-serif" font-size="14" lengthAdjust="spacing" textLength="117" x="398.5" y="938.3076">+goldRef() : int&amp;</text><text fill="#000000" font-family="sans-serif" font-size="14" lengthAdjust="spacing" textLength="107" x="398.5" y="954.6045">+getLuck() : int</text></g><!--class Merchant--><g id="elem_Merchant"><rect codeLine="134" fill="#F1F1F1" height="113.1875" id="Merchant" rx="2.5" ry="2.5" style="stroke:#181818;stroke-width:0.5;" width="416" x="1166.5" y="1063"/><ellipse cx="1337.75" cy="1079" fill="#ADD1B2" rx="11" ry="11" style="stroke:#181818;stroke-width:1.0;"/><path d="M1340.7188,1084.6406 Q1340.1406,1084.9375 1339.5,1085.0781 Q1338.8594,1085.2344 1338.1563,1085.2344 Q1335.6563,1085.2344 1334.3281,1083.5938 Q1333.0156,1081.9375 1333.0156,1078.8125 Q1333.0156,1075.6875 1334.3281,1074.0313 Q1335.6563,1072.375 1338.1563,1072.375 Q1338.8594,1072.375 1339.5,1072.5313 Q1340.1563,1072.6875 1340.7188,1072.9844 L1340.7188,1075.7031 Q1340.0938,1075.125 1339.5,1074.8594 Q1338.9063,1074.5781 1338.2813,1074.5781 Q1336.9375,1074.5781 1336.25,1075.6563 Q1335.5625,1076.7188 1335.5625,1078.8125 Q1335.5625,1080.9063 1336.25,1081.9844 Q1336.9375,1083.0469 1338.2813,1083.0469 Q1338.9063,1083.0469 1339.5,1082.7813 Q1340.0938,1082.5 1340.7188,1081.9219 L1340.7188,1084.6406 Z " fill="#000000"/><text fill="#000000" font-family="sans-serif" font-size="14" lengthAdjust="spacing" textLength="65" x="1358.25" y="1083.8467">Merchant</text><line style="stroke:#181818;stroke-width:0.5;" x1="1167.5" x2="1581.5" y1="1095" y2="1095"/><text fill="#000000" font-family="sans-serif" font-size="14" lengthAdjust="spacing" textLength="153" x="1172.5" y="1111.9951">-stock : vector&lt;Item&gt;</text><line style="stroke:#181818;stroke-width:0.5;" x1="1167.5" x2="1581.5" y1="1119.2969" y2="1119.2969"/><text fill="#000000" font-family="sans-serif" font-size="14" lengthAdjust="spacing" textLength="87" x="1172.5" y="1136.292">+Merchant()</text><text fill="#000000" font-family="sans-serif" font-size="14" lengthAdjust="spacing" textLength="100" x="1172.5" y="1152.5889">+show() : void</text><text fill="#000000" font-family="sans-serif" font-size="14" lengthAdjust="spacing" textLength="404" x="1172.5" y="1168.8857">+buy(choice : int, playerGold : int&amp;, inv : Inventory&amp;) : bool</text></g><!--class Board--><g id="elem_Board"><rect codeLine="146" fill="#F1F1F1" height="341.3438" id="Board" rx="2.5" ry="2.5" style="stroke:#181818;stroke-width:0.5;" width="272" x="683.5" y="523"/><ellipse cx="794.75" cy="539" fill="#ADD1B2" rx="11" ry="11" style="stroke:#181818;stroke-width:1.0;"/><path d="M797.7188,544.6406 Q797.1406,544.9375 796.5,545.0781 Q795.8594,545.2344 795.1563,545.2344 Q792.6563,545.2344 791.3281,543.5938 Q790.0156,541.9375 790.0156,538.8125 Q790.0156,535.6875 791.3281,534.0313 Q792.6563,532.375 795.1563,532.375 Q795.8594,532.375 796.5,532.5313 Q797.1563,532.6875 797.7188,532.9844 L797.7188,535.7031 Q797.0938,535.125 796.5,534.8594 Q795.9063,534.5781 795.2813,534.5781 Q793.9375,534.5781 793.25,535.6563 Q792.5625,536.7188 792.5625,538.8125 Q792.5625,540.9063 793.25,541.9844 Q793.9375,543.0469 795.2813,543.0469 Q795.9063,543.0469 796.5,542.7813 Q797.0938,542.5 797.7188,541.9219 L797.7188,544.6406 Z " fill="#000000"/><text fill="#000000" font-family="sans-serif" font-size="14" lengthAdjust="spacing" textLength="41" x="815.25" y="543.8467">Board</text><line style="stroke:#181818;stroke-width:0.5;" x1="684.5" x2="954.5" y1="555" y2="555"/><text fill="#000000" font-family="sans-serif" font-size="14" lengthAdjust="spacing" textLength="154" x="689.5" y="571.9951">-map : vector&lt;string&gt;</text><text fill="#000000" font-family="sans-serif" font-size="14" lengthAdjust="spacing" textLength="126" x="689.5" y="588.292">-heroEmoji : string</text><text fill="#000000" font-family="sans-serif" font-size="14" lengthAdjust="spacing" textLength="141" x="689.5" y="604.5889">-enemyEmoji : string</text><text fill="#000000" font-family="sans-serif" font-size="14" lengthAdjust="spacing" textLength="124" x="689.5" y="620.8857">-itemEmoji : string</text><text fill="#000000" font-family="sans-serif" font-size="14" lengthAdjust="spacing" textLength="119" x="689.5" y="637.1826">-wallEmoji : string</text><text fill="#000000" font-family="sans-serif" font-size="14" lengthAdjust="spacing" textLength="124" x="689.5" y="653.4795">-floorEmoji : string</text><line style="stroke:#181818;stroke-width:0.5;" x1="684.5" x2="954.5" y1="660.7813" y2="660.7813"/><text fill="#000000" font-family="sans-serif" font-size="14" lengthAdjust="spacing" textLength="63" x="689.5" y="677.7764">+Board()</text><text fill="#000000" font-family="sans-serif" font-size="14" lengthAdjust="spacing" textLength="260" x="689.5" y="694.0732">+loadFromFile(filename : string) : void</text><text fill="#000000" font-family="sans-serif" font-size="14" lengthAdjust="spacing" textLength="110" x="689.5" y="710.3701">+display() : void</text><text fill="#000000" font-family="sans-serif" font-size="14" lengthAdjust="spacing" textLength="229" x="689.5" y="726.667">+symbolToEmoji(c : char) : string</text><text fill="#000000" font-family="sans-serif" font-size="14" lengthAdjust="spacing" textLength="195" x="689.5" y="742.9639">+getCell(x : int, y : int) : char</text><text fill="#000000" font-family="sans-serif" font-size="14" lengthAdjust="spacing" textLength="251" x="689.5" y="759.2607">+setCell(x : int, y : int, c : char) : void</text><text fill="#000000" font-family="sans-serif" font-size="14" lengthAdjust="spacing" textLength="199" x="689.5" y="775.5576">+isInside(x : int, y : int) : bool</text><text fill="#000000" font-family="sans-serif" font-size="14" lengthAdjust="spacing" textLength="114" x="689.5" y="791.8545">+getWidth() : int</text><text fill="#000000" font-family="sans-serif" font-size="14" lengthAdjust="spacing" textLength="120" x="689.5" y="808.1514">+getHeight() : int</text><text fill="#000000" font-family="sans-serif" font-size="14" lengthAdjust="spacing" textLength="227" x="689.5" y="824.4482">+findHero(x : int&amp;, y : int&amp;) : void</text><text fill="#000000" font-family="sans-serif" font-size="14" lengthAdjust="spacing" textLength="152" x="689.5" y="840.7451">+countEnemies() : int</text><text fill="#000000" font-family="sans-serif" font-size="14" lengthAdjust="spacing" textLength="216" x="689.5" y="857.042">+setHeroEmoji(e : string) : void</text></g><!--class Game--><g id="elem_Game"><rect codeLine="167" fill="#F1F1F1" height="357.6406" id="Game" rx="2.5" ry="2.5" style="stroke:#181818;stroke-width:0.5;" width="280" x="885.5" y="7"/><ellipse cx="1000.75" cy="23" fill="#ADD1B2" rx="11" ry="11" style="stroke:#181818;stroke-width:1.0;"/><path d="M1003.7188,28.6406 Q1003.1406,28.9375 1002.5,29.0781 Q1001.8594,29.2344 1001.1563,29.2344 Q998.6563,29.2344 997.3281,27.5938 Q996.0156,25.9375 996.0156,22.8125 Q996.0156,19.6875 997.3281,18.0313 Q998.6563,16.375 1001.1563,16.375 Q1001.8594,16.375 1002.5,16.5313 Q1003.1563,16.6875 1003.7188,16.9844 L1003.7188,19.7031 Q1003.0938,19.125 1002.5,18.8594 Q1001.9063,18.5781 1001.2813,18.5781 Q999.9375,18.5781 999.25,19.6563 Q998.5625,20.7188 998.5625,22.8125 Q998.5625,24.9063 999.25,25.9844 Q999.9375,27.0469 1001.2813,27.0469 Q1001.9063,27.0469 1002.5,26.7813 Q1003.0938,26.5 1003.7188,25.9219 L1003.7188,28.6406 Z " fill="#000000"/><text fill="#000000" font-family="sans-serif" font-size="14" lengthAdjust="spacing" textLength="41" x="1021.25" y="27.8467">Game</text><line style="stroke:#181818;stroke-width:0.5;" x1="886.5" x2="1164.5" y1="39" y2="39"/><text fill="#000000" font-family="sans-serif" font-size="14" lengthAdjust="spacing" textLength="90" x="891.5" y="55.9951">-Board board</text><text fill="#000000" font-family="sans-serif" font-size="14" lengthAdjust="spacing" textLength="91" x="891.5" y="72.292">-Player player</text><text fill="#000000" font-family="sans-serif" font-size="14" lengthAdjust="spacing" textLength="140" x="891.5" y="88.5889">-Merchant merchant</text><text fill="#000000" font-family="sans-serif" font-size="14" lengthAdjust="spacing" textLength="65" x="891.5" y="104.8857">-int steps</text><line style="stroke:#181818;stroke-width:0.5;" x1="886.5" x2="1164.5" y1="112.1875" y2="112.1875"/><text fill="#000000" font-family="sans-serif" font-size="14" lengthAdjust="spacing" textLength="63" x="891.5" y="129.1826">+Game()</text><text fill="#000000" font-family="sans-serif" font-size="14" lengthAdjust="spacing" textLength="77" x="891.5" y="145.4795">+void run()</text><text fill="#000000" font-family="sans-serif" font-size="14" lengthAdjust="spacing" textLength="84" x="891.5" y="161.7764">+void loop()</text><text fill="#000000" font-family="sans-serif" font-size="14" lengthAdjust="spacing" textLength="143" x="891.5" y="178.0732">+void chooseClass()</text><text fill="#000000" font-family="sans-serif" font-size="14" lengthAdjust="spacing" textLength="143" x="891.5" y="194.3701">+void doTurnMenu()</text><text fill="#000000" font-family="sans-serif" font-size="14" lengthAdjust="spacing" textLength="153" x="891.5" y="210.667">+void moveWithDice()</text><text fill="#000000" font-family="sans-serif" font-size="14" lengthAdjust="spacing" textLength="149" x="891.5" y="226.9639">+void useItemMenu()</text><text fill="#000000" font-family="sans-serif" font-size="14" lengthAdjust="spacing" textLength="155" x="891.5" y="243.2607">+void openMerchant()</text><text fill="#000000" font-family="sans-serif" font-size="14" lengthAdjust="spacing" textLength="207" x="891.5" y="259.5576">+Item generateRandomItem()</text><text fill="#000000" font-family="sans-serif" font-size="14" lengthAdjust="spacing" textLength="217" x="891.5" y="275.8545">+bool movePlayer(int dx, int dy)</text><text fill="#000000" font-family="sans-serif" font-size="14" lengthAdjust="spacing" textLength="216" x="891.5" y="292.1514">+void combat(Enemy&amp; enemy)</text><text fill="#000000" font-family="sans-serif" font-size="14" lengthAdjust="spacing" textLength="268" x="891.5" y="308.4482">+void loadMap(const string&amp; filename)</text><text fill="#000000" font-family="sans-serif" font-size="14" lengthAdjust="spacing" textLength="164" x="891.5" y="324.7451">+void checkEndGame()</text><text fill="#000000" font-family="sans-serif" font-size="14" lengthAdjust="spacing" textLength="137" x="891.5" y="341.042">+void showVictory()</text><text fill="#000000" font-family="sans-serif" font-size="14" lengthAdjust="spacing" textLength="164" x="891.5" y="357.3389">+void showGameOver()</text></g><!--class Dice--><g id="elem_Dice"><rect codeLine="199" fill="#F1F1F1" height="64.2969" id="Dice" rx="2.5" ry="2.5" style="stroke:#181818;stroke-width:0.5;" width="142" x="918.5" y="1087.5"/><ellipse cx="969.75" cy="1103.5" fill="#ADD1B2" rx="11" ry="11" style="stroke:#181818;stroke-width:1.0;"/><path d="M972.7188,1109.1406 Q972.1406,1109.4375 971.5,1109.5781 Q970.8594,1109.7344 970.1563,1109.7344 Q967.6563,1109.7344 966.3281,1108.0938 Q965.0156,1106.4375 965.0156,1103.3125 Q965.0156,1100.1875 966.3281,1098.5313 Q967.6563,1096.875 970.1563,1096.875 Q970.8594,1096.875 971.5,1097.0313 Q972.1563,1097.1875 972.7188,1097.4844 L972.7188,1100.2031 Q972.0938,1099.625 971.5,1099.3594 Q970.9063,1099.0781 970.2813,1099.0781 Q968.9375,1099.0781 968.25,1100.1563 Q967.5625,1101.2188 967.5625,1103.3125 Q967.5625,1105.4063 968.25,1106.4844 Q968.9375,1107.5469 970.2813,1107.5469 Q970.9063,1107.5469 971.5,1107.2813 Q972.0938,1107 972.7188,1106.4219 L972.7188,1109.1406 Z " fill="#000000"/><text fill="#000000" font-family="sans-serif" font-size="14" lengthAdjust="spacing" textLength="31" x="990.25" y="1108.3467">Dice</text><line style="stroke:#181818;stroke-width:0.5;" x1="919.5" x2="1059.5" y1="1119.5" y2="1119.5"/><line style="stroke:#181818;stroke-width:0.5;" x1="919.5" x2="1059.5" y1="1127.5" y2="1127.5"/><text fill="#000000" font-family="sans-serif" font-size="14" lengthAdjust="spacing" textLength="130" x="924.5" y="1144.4951">+roll(max : int) : int</text></g><!--class Input--><g id="elem_Input"><rect codeLine="203" fill="#F1F1F1" height="96.8906" id="Input" rx="2.5" ry="2.5" style="stroke:#181818;stroke-width:0.5;" width="125" x="7" y="645"/><ellipse cx="48.1" cy="661" fill="#ADD1B2" rx="11" ry="11" style="stroke:#181818;stroke-width:1.0;"/><path d="M51.0688,666.6406 Q50.4906,666.9375 49.85,667.0781 Q49.2094,667.2344 48.5063,667.2344 Q46.0063,667.2344 44.6781,665.5938 Q43.3656,663.9375 43.3656,660.8125 Q43.3656,657.6875 44.6781,656.0313 Q46.0063,654.375 48.5063,654.375 Q49.2094,654.375 49.85,654.5313 Q50.5063,654.6875 51.0688,654.9844 L51.0688,657.7031 Q50.4438,657.125 49.85,656.8594 Q49.2563,656.5781 48.6313,656.5781 Q47.2875,656.5781 46.6,657.6563 Q45.9125,658.7188 45.9125,660.8125 Q45.9125,662.9063 46.6,663.9844 Q47.2875,665.0469 48.6313,665.0469 Q49.2563,665.0469 49.85,664.7813 Q50.4438,664.5 51.0688,663.9219 L51.0688,666.6406 Z " fill="#000000"/><text fill="#000000" font-family="sans-serif" font-size="14" lengthAdjust="spacing" textLength="35" x="67.9" y="665.8467">Input</text><line style="stroke:#181818;stroke-width:0.5;" x1="8" x2="131" y1="677" y2="677"/><line style="stroke:#181818;stroke-width:0.5;" x1="8" x2="131" y1="685" y2="685"/><text fill="#000000" font-family="sans-serif" font-size="14" lengthAdjust="spacing" textLength="83" x="13" y="701.9951">+init() : void</text><text fill="#000000" font-family="sans-serif" font-size="14" lengthAdjust="spacing" textLength="113" x="13" y="718.292">+restore() : void</text><text fill="#000000" font-family="sans-serif" font-size="14" lengthAdjust="spacing" textLength="113" x="13" y="734.5889">+getKey() : char</text></g><!--reverse link Entity to Enemy--><g id="link_Entity_Enemy"><path codeLine="59" d="M439.3302,275.7355 C418.6002,322.8455 398.35,369.24 374.5,425 C350.34,481.47 323.77,544.87 302.58,595.77 " fill="none" id="Entity-backto-Enemy" style="stroke:#181818;stroke-width:1.0;"/><polygon fill="none" points="446.58,259.26,433.8384,273.3189,444.8221,278.1521,446.58,259.26" style="stroke:#181818;stroke-width:1.0;"/></g><!--reverse link Enemy to Attack--><g id="link_Enemy_Attack"><path codeLine="60" d="M271.218,803.2017 C276.748,872.2517 283.21,952.77 288.75,1021.81 " fill="none" id="Enemy-backto-Attack" style="stroke:#181818;stroke-width:1.0;"/><polygon fill="#181818" points="270.26,791.24,266.7518,797.5402,271.218,803.2017,274.7262,796.9015,270.26,791.24" style="stroke:#181818;stroke-width:1.0;"/><text fill="#000000" font-family="sans-serif" font-size="13" lengthAdjust="spacing" textLength="8" x="262.5244" y="810.7228">1</text><text fill="#000000" font-family="sans-serif" font-size="13" lengthAdjust="spacing" textLength="7" x="280.8887" y="1010.8409">*</text></g><!--reverse link Inventory to Item--><g id="link_Inventory_Item"><path codeLine="88" d="M855.9703,1199.7089 C891.1303,1225.6189 922.02,1248.38 960.73,1276.91 " fill="none" id="Inventory-backto-Item" style="stroke:#181818;stroke-width:1.0;"/><polygon fill="#181818" points="846.31,1192.59,848.7672,1199.3695,855.9703,1199.7089,853.5131,1192.9293,846.31,1192.59" style="stroke:#181818;stroke-width:1.0;"/><text fill="#000000" font-family="sans-serif" font-size="13" lengthAdjust="spacing" textLength="8" x="847.2513" y="1212.3549">1</text><text fill="#000000" font-family="sans-serif" font-size="13" lengthAdjust="spacing" textLength="7" x="943.2306" y="1265.8367">*</text></g><!--reverse link Entity to Player--><g id="link_Entity_Player"><path codeLine="127" d="M485.9888,277.0983 C489.6788,321.5583 493.18,363.7 498.27,424.93 " fill="none" id="Entity-backto-Player" style="stroke:#181818;stroke-width:1.0;"/><polygon fill="none" points="484.5,259.16,480.0094,277.5946,491.9682,276.6021,484.5,259.16" style="stroke:#181818;stroke-width:1.0;"/></g><!--reverse link Player to Inventory--><g id="link_Player_Inventory"><path codeLine="128" d="M654.3426,943.4092 C676.5426,984.6992 692.34,1014.06 709.65,1046.25 " fill="none" id="Player-backto-Inventory" style="stroke:#181818;stroke-width:1.0;"/><polygon fill="#181818" points="648.66,932.84,647.9783,940.0188,654.3426,943.4092,655.0244,936.2304,648.66,932.84" style="stroke:#181818;stroke-width:1.0;"/><text fill="#000000" font-family="sans-serif" font-size="13" lengthAdjust="spacing" textLength="8" x="656.3005" y="943.3167">1</text><text fill="#000000" font-family="sans-serif" font-size="13" lengthAdjust="spacing" textLength="8" x="697.432" y="1035.3854">1</text></g><!--reverse link Player to Attack--><g id="link_Player_Attack"><path codeLine="129" d="M386.8647,947.4504 C371.0847,977.3204 361.35,995.75 347.72,1021.54 " fill="none" id="Player-backto-Attack" style="stroke:#181818;stroke-width:1.0;"/><polygon fill="#181818" points="392.47,936.84,386.1305,940.2767,386.8647,947.4504,393.2041,944.0136,392.47,936.84" style="stroke:#181818;stroke-width:1.0;"/><text fill="#000000" font-family="sans-serif" font-size="13" lengthAdjust="spacing" textLength="8" x="376.4244" y="948.2853">1</text><text fill="#000000" font-family="sans-serif" font-size="13" lengthAdjust="spacing" textLength="7" x="344.2244" y="1010.8791">*</text></g><!--reverse link Merchant to Item--><g id="link_Merchant_Item"><path codeLine="141" d="M1312.0642,1184.8528 C1283.7742,1214.0128 1256.43,1242.19 1222.69,1276.96 " fill="none" id="Merchant-backto-Item" style="stroke:#181818;stroke-width:1.0;"/><polygon fill="#181818" points="1320.42,1176.24,1313.3712,1177.7611,1312.0642,1184.8528,1319.113,1183.3317,1320.42,1176.24" style="stroke:#181818;stroke-width:1.0;"/><text fill="#000000" font-family="sans-serif" font-size="13" lengthAdjust="spacing" textLength="8" x="1305.3415" y="1196.1328">1</text><text fill="#000000" font-family="sans-serif" font-size="13" lengthAdjust="spacing" textLength="7" x="1222.791" y="1265.8901">*</text></g><!--link Game to Board--><g id="link_Game_Board"><path codeLine="189" d="M952.87,365.22 C932.02,416.39 911.6146,466.4738 890.9746,517.1138 " fill="none" id="Game-to-Board" style="stroke:#181818;stroke-width:1.0;"/><polygon fill="#181818" points="888.71,522.67,895.8111,515.8454,890.5972,518.0398,888.4028,512.8259,888.71,522.67" style="stroke:#181818;stroke-width:1.0;"/></g><!--link Game to Player--><g id="link_Game_Player"><path codeLine="190" d="M885.37,257.95 C813.29,299.45 727.75,357.05 665.5,425 C659.7,431.33 657.8124,433.2562 652.3224,440.0762 " fill="none" id="Game-to-Player" style="stroke:#181818;stroke-width:1.0;"/><polygon fill="#181818" points="648.56,444.75,657.3194,440.2475,651.6953,440.8551,651.0877,435.231,648.56,444.75" style="stroke:#181818;stroke-width:1.0;"/></g><!--link Game to Merchant--><g id="link_Game_Merchant"><path codeLine="191" d="M1113.74,365.31 C1122.78,385.29 1131.55,405.48 1139.5,425 C1234.19,657.53 1320.933,938.2909 1356.413,1057.0909 " fill="none" id="Game-to-Merchant" style="stroke:#181818;stroke-width:1.0;"/><polygon fill="#181818" points="1358.13,1062.84,1359.3872,1053.0717,1356.6992,1058.0491,1351.7218,1055.361,1358.13,1062.84" style="stroke:#181818;stroke-width:1.0;"/></g><!--link Game to Dice--><g id="link_Game_Dice"><path codeLine="192" d="M1008.33,365.23 C994.91,594.45 981.7148,970.3135 985.5148,1081.3435 " fill="none" id="Game-to-Dice" style="stroke:#181818;stroke-width:1.0;"/><polygon fill="#181818" points="985.72,1087.34,989.4098,1078.2084,985.549,1082.3429,981.4145,1078.4821,985.72,1087.34" style="stroke:#181818;stroke-width:1.0;"/></g><!--link Game to Dice--><g id="link_Game_Dice"><path codeLine="210" d="M1029.5,365.23 C1025.47,594.45 1009.5303,970.3498 996.6703,1081.3798 " fill="none" id="Game-to-Dice-1" style="stroke:#181818;stroke-width:1.0;stroke-dasharray:7.0,7.0;"/><polygon fill="#181818" points="995.98,1087.34,1000.9889,1078.86,996.5553,1082.3732,993.0421,1077.9395,995.98,1087.34" style="stroke:#181818;stroke-width:1.0;"/></g><!--link Game to Item--><g id="link_Game_Item"><path codeLine="193" d="M1043.3,365.32 C1045.14,385.44 1046.91,405.66 1048.5,425 C1073.75,732.98 1095.9551,1090.8905 1106.6251,1270.9505 " fill="none" id="Game-to-Item" style="stroke:#181818;stroke-width:1.0;"/><polygon fill="#181818" points="1106.98,1276.94,1110.4406,1267.7191,1106.6842,1271.9488,1102.4546,1268.1924,1106.98,1276.94" style="stroke:#181818;stroke-width:1.0;"/></g><!--link Game to Enemy--><g id="link_Game_Enemy"><path codeLine="194" d="M885.36,252.94 C805.15,289.08 701.98,332.92 607.5,365 C506.24,399.38 455.37,355.04 374.5,425 C324.14,468.56 297.4839,532.7074 281.9739,590.1574 " fill="none" id="Game-to-Enemy" style="stroke:#181818;stroke-width:1.0;"/><polygon fill="#181818" points="280.41,595.95,286.6175,588.3037,281.7132,591.1228,278.894,586.2185,280.41,595.95" style="stroke:#181818;stroke-width:1.0;"/></g><!--link Player to Dice--><g id="link_Player_Dice"><path codeLine="209" d="M648.56,946.92 C654.01,952.22 659.65,957.26 665.5,962 C738.24,1020.99 784.38,978.84 867.5,1022 C900.81,1039.3 929.4669,1062.2388 952.7669,1083.2788 " fill="none" id="Player-to-Dice" style="stroke:#181818;stroke-width:1.0;stroke-dasharray:7.0,7.0;"/><polygon fill="#181818" points="957.22,1087.3,953.2211,1078.2995,953.5091,1083.949,947.8596,1084.237,957.22,1087.3" style="stroke:#181818;stroke-width:1.0;"/></g><!--SRC=[bLTRL-Cs47xFh_3X8MkMPDk-ShQSOn83Faq2JGnRddeKMoGgjkLZoO5ik_-zeujjoPUKyf14ez5eBjzy8zWhoN9KeDI94iIOntb1jYN7GKIp3VcEdPz7eq-_zloDFZd-wd6v6TZ5MPawO0r5h-4nnyxV8yTP1BTt8NpV-TxJCtmllTjWDlenKie1nscjUds_UjpykGXk_7enzq3V5-f3_imMtcRZEtFVkVOs_e2Q3DFnCqxuKLurTJAKOkVIOH1wjfEIXBm82SauB2-qjclfJGobSwb5c9UG0tRFGRYbD9727UOBq9F2oXn7htYEKhJ3Rfpkj0duEb0IduhF2qFlzyVJWQcK3mOMosjhNwPEYZ8qeumR8YwAS6aKJpgjbkqScFOcBMEJhgNpAYShC2DpKlicnJehPh90kjHcst9XKSeCLt-SWgk_VFuFLE2q0aM1ebRkS4h_8hQem6-eY6zf4XlvGz8R9WgA8qwBhygzAmqbkCArZDT9MOEq9oc-kBT7lfQNMqafK1RJL9UgoOp8YaRyrt-cK-N4I4LxzikPynbaPv_FAkt130QXltH-SeBLaxyAxzUdaodwUH276XbLpqlP0IMb2Ssy897PXKBPRHsScAVE6xKMJ4-TcfWNdNUmPRWeDvx4oJOI1-3y80otTUUOHGN9EQ6PUGHAfFEM7N06iAc0IC010qp27mKb5CSoLg6W7QrPHEopFNrpRGaGUjiTPIAByNj3H4Acy0IO1qPhRLSyrNXgWaWU7eJGmy9xzjSdWVEGe2CkTFJl1Y2Enk-TtND92QHdivgnb7PN7H3sD3Hx9VaAl_EmBBA6ng48TQYNJO5ETxjCe8h5LR1YW0ZAYApyUmM-OoklkYn_jElqt1Rylx4oEA2YFQKCQyfe5LhpWL3ROvIuAALbndiiWpLMaVUWacPoo-UIOIcBwgbXEOVoF3dEHFLSyBFfqfRPMLNVZx8dNDk7UzEc87NBLMWtAHkE3tRN-AKwDAuBLMeo5fPQJApmCTAGhzi8lXkKjJS_GDHBVpsxyrRXoJvRuYBQ8mX5THhZLFPGXsSglGh57LhPbaUhFC2eqkLcBeudeeFCtXdNTOQCr9vyd4Ukxxtr76RHqdiu6UGrXHcf8qnHtiIdq70bD_Que7wN3B0Oa3roGRWzuZUK93tYbuJIeYE_K9xfd2OKnJS5JMz8WjqN-B3cbvNic32HtHQn7zCjJK8LX1l15kIpw3R332T9B_K8zOgZUfKcZcdLe9GWOoJ6lKRDH_0t4lDzcyBkCDdjxMVT2xJa7PIZCZYkBOwjYoFHXE85Gp2p331XLfVJxSbXFMTlHOe5C4IH54osubDBTDSf96jPZTDK_z1ok1kkmJcJwmjfMbPMBCIjJb5cjW10aTiIHSIAxAoDc8ffj8H_acov6CtV2D_FvIF3tD7qrZr2SvnPxLmzcA0Q6IuGnslvWfJaMEsBCihBz30JqSRl4nbrVBHZeEaMSLU-BCUgVrfHetY9Sg3xZ75TcR5J0RwL3Xoz-bdSpQKWe2SYclZOtH3gzmSvSg7IiiRJwPMgRxFKj5klgvmq4f7KPYMvg5wfv_CWDJs6mI88lM3jRqvIaxX20X3UMHHQBaN6ADApedeIvYNNgYGZt6x-0WDr5zXjJx3Vi689sTjWIoFwonSpkdhrBm00]--></g></svg>